<mxfile host="app.diagrams.net" modified="2023-11-01T14:44:43.815Z" agent="Mozilla/5.0 (Windows NT 10.0; Win64; x64) AppleWebKit/537.36 (KHTML, like Gecko) Chrome/109.0.0.0 Safari/537.36" etag="T0mDUp__Dy9XxAqkZwu9" version="22.0.8" type="device">
  <diagram name="Страница — 1" id="O2DKld475pdmEx9NA0Uo">
    <mxGraphModel dx="1687" dy="2001" grid="1" gridSize="10" guides="1" tooltips="1" connect="1" arrows="1" fold="1" page="1" pageScale="1" pageWidth="827" pageHeight="1169" math="0" shadow="0">
      <root>
        <mxCell id="0" />
        <mxCell id="1" parent="0" />
        <mxCell id="pQNl8kFYSYKoo_jJR8Nf-14" value="&lt;font style=&quot;font-size: 16px;&quot;&gt;Plugin Inner&lt;/font&gt;" style="shape=module;align=left;spacingLeft=20;align=center;verticalAlign=top;whiteSpace=wrap;html=1;movable=0;resizable=0;rotatable=0;deletable=0;editable=0;locked=1;connectable=0;" parent="1" vertex="1">
          <mxGeometry x="700" y="130" width="1950" height="1940" as="geometry" />
        </mxCell>
        <mxCell id="pQNl8kFYSYKoo_jJR8Nf-9" value="&lt;font style=&quot;font-size: 16px;&quot;&gt;External plugin&lt;/font&gt;" style="shape=module;align=left;spacingLeft=20;align=center;verticalAlign=top;whiteSpace=wrap;html=1;movable=0;resizable=0;rotatable=0;deletable=0;editable=0;locked=1;connectable=0;" parent="1" vertex="1">
          <mxGeometry x="790" y="-640" width="1280" height="690" as="geometry" />
        </mxCell>
        <mxCell id="ADWufYTODqnqWgLy_RdV-12" value="EventDispatcher" style="swimlane;fontStyle=1;align=center;verticalAlign=top;childLayout=stackLayout;horizontal=1;startSize=26.444444444444443;horizontalStack=0;resizeParent=1;resizeParentMax=0;resizeLast=0;collapsible=0;marginBottom=0;" parent="1" vertex="1">
          <mxGeometry x="890" y="360" width="340" height="112.44444444444444" as="geometry" />
        </mxCell>
        <mxCell id="ADWufYTODqnqWgLy_RdV-14" value="- handlers: ((event: IChangeEvent) =&gt; void)[] = []" style="text;strokeColor=none;fillColor=none;align=left;verticalAlign=top;spacingLeft=4;spacingRight=4;overflow=hidden;rotatable=0;points=[[0,0.5],[1,0.5]];portConstraint=eastwest;" parent="ADWufYTODqnqWgLy_RdV-12" vertex="1">
          <mxGeometry y="26.444444444444443" width="340" height="26" as="geometry" />
        </mxCell>
        <mxCell id="ADWufYTODqnqWgLy_RdV-13" style="line;strokeWidth=1;fillColor=none;align=left;verticalAlign=middle;spacingTop=-1;spacingLeft=3;spacingRight=3;rotatable=0;labelPosition=right;points=[];portConstraint=eastwest;strokeColor=inherit;" parent="ADWufYTODqnqWgLy_RdV-12" vertex="1">
          <mxGeometry y="52.44444444444444" width="340" height="8" as="geometry" />
        </mxCell>
        <mxCell id="ADWufYTODqnqWgLy_RdV-15" value="+  addEventListener(callback: (event: IChangeEvent) =&gt; void)" style="text;strokeColor=none;fillColor=none;align=left;verticalAlign=top;spacingLeft=4;spacingRight=4;overflow=hidden;rotatable=0;points=[[0,0.5],[1,0.5]];portConstraint=eastwest;" parent="ADWufYTODqnqWgLy_RdV-12" vertex="1">
          <mxGeometry y="60.44444444444444" width="340" height="26" as="geometry" />
        </mxCell>
        <mxCell id="ADWufYTODqnqWgLy_RdV-16" value="+ dispatchEvent(event: IChangeEvent)" style="text;strokeColor=none;fillColor=none;align=left;verticalAlign=top;spacingLeft=4;spacingRight=4;overflow=hidden;rotatable=0;points=[[0,0.5],[1,0.5]];portConstraint=eastwest;" parent="ADWufYTODqnqWgLy_RdV-12" vertex="1">
          <mxGeometry y="86.44444444444444" width="340" height="26" as="geometry" />
        </mxCell>
        <mxCell id="ADWufYTODqnqWgLy_RdV-17" value="RangeSlider" style="swimlane;fontStyle=1;align=center;verticalAlign=top;childLayout=stackLayout;horizontal=1;startSize=27.5;horizontalStack=0;resizeParent=1;resizeParentMax=0;resizeLast=0;collapsible=0;marginBottom=0;" parent="1" vertex="1">
          <mxGeometry x="1390" y="492" width="264" height="229.5" as="geometry" />
        </mxCell>
        <mxCell id="ADWufYTODqnqWgLy_RdV-18" value="-value:number" style="text;strokeColor=none;fillColor=none;align=left;verticalAlign=top;spacingLeft=4;spacingRight=4;overflow=hidden;rotatable=0;points=[[0,0.5],[1,0.5]];portConstraint=eastwest;" parent="ADWufYTODqnqWgLy_RdV-17" vertex="1">
          <mxGeometry y="27.5" width="264" height="28" as="geometry" />
        </mxCell>
        <mxCell id="ADWufYTODqnqWgLy_RdV-19" value="-observers: IObserver[]" style="text;strokeColor=none;fillColor=none;align=left;verticalAlign=top;spacingLeft=4;spacingRight=4;overflow=hidden;rotatable=0;points=[[0,0.5],[1,0.5]];portConstraint=eastwest;" parent="ADWufYTODqnqWgLy_RdV-17" vertex="1">
          <mxGeometry y="55.5" width="264" height="28" as="geometry" />
        </mxCell>
        <mxCell id="ADWufYTODqnqWgLy_RdV-20" style="line;strokeWidth=1;fillColor=none;align=left;verticalAlign=middle;spacingTop=-1;spacingLeft=3;spacingRight=3;rotatable=0;labelPosition=right;points=[];portConstraint=eastwest;strokeColor=inherit;" parent="ADWufYTODqnqWgLy_RdV-17" vertex="1">
          <mxGeometry y="83.5" width="264" height="8" as="geometry" />
        </mxCell>
        <mxCell id="ADWufYTODqnqWgLy_RdV-21" value="+updateOptions(id: number):void" style="text;strokeColor=none;fillColor=none;align=left;verticalAlign=top;spacingLeft=4;spacingRight=4;overflow=hidden;rotatable=0;points=[[0,0.5],[1,0.5]];portConstraint=eastwest;" parent="ADWufYTODqnqWgLy_RdV-17" vertex="1">
          <mxGeometry y="91.5" width="264" height="28" as="geometry" />
        </mxCell>
        <mxCell id="ADWufYTODqnqWgLy_RdV-22" value="+setValue(value: number):void" style="text;strokeColor=none;fillColor=none;align=left;verticalAlign=top;spacingLeft=4;spacingRight=4;overflow=hidden;rotatable=0;points=[[0,0.5],[1,0.5]];portConstraint=eastwest;" parent="ADWufYTODqnqWgLy_RdV-17" vertex="1">
          <mxGeometry y="119.5" width="264" height="28" as="geometry" />
        </mxCell>
        <mxCell id="ADWufYTODqnqWgLy_RdV-23" value="+getValue(): number" style="text;strokeColor=none;fillColor=none;align=left;verticalAlign=top;spacingLeft=4;spacingRight=4;overflow=hidden;rotatable=0;points=[[0,0.5],[1,0.5]];portConstraint=eastwest;" parent="ADWufYTODqnqWgLy_RdV-17" vertex="1">
          <mxGeometry y="147.5" width="264" height="28" as="geometry" />
        </mxCell>
        <mxCell id="pQNl8kFYSYKoo_jJR8Nf-206" value="+ addObserver(observer: IObserver): void" style="text;strokeColor=none;fillColor=none;align=left;verticalAlign=top;spacingLeft=4;spacingRight=4;overflow=hidden;rotatable=0;points=[[0,0.5],[1,0.5]];portConstraint=eastwest;" parent="ADWufYTODqnqWgLy_RdV-17" vertex="1">
          <mxGeometry y="175.5" width="264" height="27" as="geometry" />
        </mxCell>
        <mxCell id="pQNl8kFYSYKoo_jJR8Nf-207" value="- notifyObservers(): void" style="text;strokeColor=none;fillColor=none;align=left;verticalAlign=top;spacingLeft=4;spacingRight=4;overflow=hidden;rotatable=0;points=[[0,0.5],[1,0.5]];portConstraint=eastwest;" parent="ADWufYTODqnqWgLy_RdV-17" vertex="1">
          <mxGeometry y="202.5" width="264" height="27" as="geometry" />
        </mxCell>
        <mxCell id="ADWufYTODqnqWgLy_RdV-32" value="TrackModel" style="swimlane;fontStyle=1;align=center;verticalAlign=top;childLayout=stackLayout;horizontal=1;startSize=26.857142857142858;horizontalStack=0;resizeParent=1;resizeParentMax=0;resizeLast=0;collapsible=0;marginBottom=0;" parent="1" vertex="1">
          <mxGeometry x="1780" y="492" width="240" height="278.8571428571429" as="geometry" />
        </mxCell>
        <mxCell id="ADWufYTODqnqWgLy_RdV-33" value="- width: number" style="text;strokeColor=none;fillColor=none;align=left;verticalAlign=top;spacingLeft=4;spacingRight=4;overflow=hidden;rotatable=0;points=[[0,0.5],[1,0.5]];portConstraint=eastwest;" parent="ADWufYTODqnqWgLy_RdV-32" vertex="1">
          <mxGeometry y="26.857142857142858" width="240" height="27" as="geometry" />
        </mxCell>
        <mxCell id="ADWufYTODqnqWgLy_RdV-34" value="- height: number" style="text;strokeColor=none;fillColor=none;align=left;verticalAlign=top;spacingLeft=4;spacingRight=4;overflow=hidden;rotatable=0;points=[[0,0.5],[1,0.5]];portConstraint=eastwest;" parent="ADWufYTODqnqWgLy_RdV-32" vertex="1">
          <mxGeometry y="53.85714285714286" width="240" height="27" as="geometry" />
        </mxCell>
        <mxCell id="ADWufYTODqnqWgLy_RdV-35" style="line;strokeWidth=1;fillColor=none;align=left;verticalAlign=middle;spacingTop=-1;spacingLeft=3;spacingRight=3;rotatable=0;labelPosition=right;points=[];portConstraint=eastwest;strokeColor=inherit;" parent="ADWufYTODqnqWgLy_RdV-32" vertex="1">
          <mxGeometry y="80.85714285714286" width="240" height="8" as="geometry" />
        </mxCell>
        <mxCell id="pQNl8kFYSYKoo_jJR8Nf-268" value="+updateOptions(id: number):void" style="text;strokeColor=none;fillColor=none;align=left;verticalAlign=top;spacingLeft=4;spacingRight=4;overflow=hidden;rotatable=0;points=[[0,0.5],[1,0.5]];portConstraint=eastwest;" parent="ADWufYTODqnqWgLy_RdV-32" vertex="1">
          <mxGeometry y="88.85714285714286" width="240" height="28" as="geometry" />
        </mxCell>
        <mxCell id="ADWufYTODqnqWgLy_RdV-36" value="+ getWidth(): number" style="text;strokeColor=none;fillColor=none;align=left;verticalAlign=top;spacingLeft=4;spacingRight=4;overflow=hidden;rotatable=0;points=[[0,0.5],[1,0.5]];portConstraint=eastwest;" parent="ADWufYTODqnqWgLy_RdV-32" vertex="1">
          <mxGeometry y="116.85714285714286" width="240" height="27" as="geometry" />
        </mxCell>
        <mxCell id="ADWufYTODqnqWgLy_RdV-37" value="+ setWidth(width: number): void" style="text;strokeColor=none;fillColor=none;align=left;verticalAlign=top;spacingLeft=4;spacingRight=4;overflow=hidden;rotatable=0;points=[[0,0.5],[1,0.5]];portConstraint=eastwest;" parent="ADWufYTODqnqWgLy_RdV-32" vertex="1">
          <mxGeometry y="143.85714285714286" width="240" height="27" as="geometry" />
        </mxCell>
        <mxCell id="ADWufYTODqnqWgLy_RdV-38" value="+ getHeight(): number" style="text;strokeColor=none;fillColor=none;align=left;verticalAlign=top;spacingLeft=4;spacingRight=4;overflow=hidden;rotatable=0;points=[[0,0.5],[1,0.5]];portConstraint=eastwest;" parent="ADWufYTODqnqWgLy_RdV-32" vertex="1">
          <mxGeometry y="170.85714285714286" width="240" height="27" as="geometry" />
        </mxCell>
        <mxCell id="ADWufYTODqnqWgLy_RdV-39" value="+ setHeight(height: number): void" style="text;strokeColor=none;fillColor=none;align=left;verticalAlign=top;spacingLeft=4;spacingRight=4;overflow=hidden;rotatable=0;points=[[0,0.5],[1,0.5]];portConstraint=eastwest;" parent="ADWufYTODqnqWgLy_RdV-32" vertex="1">
          <mxGeometry y="197.85714285714286" width="240" height="27" as="geometry" />
        </mxCell>
        <mxCell id="pQNl8kFYSYKoo_jJR8Nf-208" value="+ addObserver(observer: IObserver): void" style="text;strokeColor=none;fillColor=none;align=left;verticalAlign=top;spacingLeft=4;spacingRight=4;overflow=hidden;rotatable=0;points=[[0,0.5],[1,0.5]];portConstraint=eastwest;" parent="ADWufYTODqnqWgLy_RdV-32" vertex="1">
          <mxGeometry y="224.85714285714286" width="240" height="27" as="geometry" />
        </mxCell>
        <mxCell id="pQNl8kFYSYKoo_jJR8Nf-209" value="- notifyObservers(): void" style="text;strokeColor=none;fillColor=none;align=left;verticalAlign=top;spacingLeft=4;spacingRight=4;overflow=hidden;rotatable=0;points=[[0,0.5],[1,0.5]];portConstraint=eastwest;" parent="ADWufYTODqnqWgLy_RdV-32" vertex="1">
          <mxGeometry y="251.85714285714286" width="240" height="27" as="geometry" />
        </mxCell>
        <mxCell id="ADWufYTODqnqWgLy_RdV-40" value="FillModel" style="swimlane;fontStyle=1;align=center;verticalAlign=top;childLayout=stackLayout;horizontal=1;startSize=26.857142857142858;horizontalStack=0;resizeParent=1;resizeParentMax=0;resizeLast=0;collapsible=0;marginBottom=0;" parent="1" vertex="1">
          <mxGeometry x="2210" y="492" width="320" height="278.8571428571429" as="geometry" />
        </mxCell>
        <mxCell id="ADWufYTODqnqWgLy_RdV-41" value="- position: number | number[]" style="text;strokeColor=none;fillColor=none;align=left;verticalAlign=top;spacingLeft=4;spacingRight=4;overflow=hidden;rotatable=0;points=[[0,0.5],[1,0.5]];portConstraint=eastwest;" parent="ADWufYTODqnqWgLy_RdV-40" vertex="1">
          <mxGeometry y="26.857142857142858" width="320" height="27" as="geometry" />
        </mxCell>
        <mxCell id="ADWufYTODqnqWgLy_RdV-42" value="- trackModel: TrackModel" style="text;strokeColor=none;fillColor=none;align=left;verticalAlign=top;spacingLeft=4;spacingRight=4;overflow=hidden;rotatable=0;points=[[0,0.5],[1,0.5]];portConstraint=eastwest;" parent="ADWufYTODqnqWgLy_RdV-40" vertex="1">
          <mxGeometry y="53.85714285714286" width="320" height="27" as="geometry" />
        </mxCell>
        <mxCell id="ADWufYTODqnqWgLy_RdV-43" value="- observers: IObserver[]" style="text;strokeColor=none;fillColor=none;align=left;verticalAlign=top;spacingLeft=4;spacingRight=4;overflow=hidden;rotatable=0;points=[[0,0.5],[1,0.5]];portConstraint=eastwest;" parent="ADWufYTODqnqWgLy_RdV-40" vertex="1">
          <mxGeometry y="80.85714285714286" width="320" height="27" as="geometry" />
        </mxCell>
        <mxCell id="ADWufYTODqnqWgLy_RdV-44" style="line;strokeWidth=1;fillColor=none;align=left;verticalAlign=middle;spacingTop=-1;spacingLeft=3;spacingRight=3;rotatable=0;labelPosition=right;points=[];portConstraint=eastwest;strokeColor=inherit;" parent="ADWufYTODqnqWgLy_RdV-40" vertex="1">
          <mxGeometry y="107.85714285714286" width="320" height="8" as="geometry" />
        </mxCell>
        <mxCell id="pQNl8kFYSYKoo_jJR8Nf-269" value="+updateOptions(id: number):void" style="text;strokeColor=none;fillColor=none;align=left;verticalAlign=top;spacingLeft=4;spacingRight=4;overflow=hidden;rotatable=0;points=[[0,0.5],[1,0.5]];portConstraint=eastwest;" parent="ADWufYTODqnqWgLy_RdV-40" vertex="1">
          <mxGeometry y="115.85714285714286" width="320" height="28" as="geometry" />
        </mxCell>
        <mxCell id="ADWufYTODqnqWgLy_RdV-45" value="+ calculateFillLength(fillPos: number | number[]): number" style="text;strokeColor=none;fillColor=none;align=left;verticalAlign=top;spacingLeft=4;spacingRight=4;overflow=hidden;rotatable=0;points=[[0,0.5],[1,0.5]];portConstraint=eastwest;" parent="ADWufYTODqnqWgLy_RdV-40" vertex="1">
          <mxGeometry y="143.85714285714286" width="320" height="27" as="geometry" />
        </mxCell>
        <mxCell id="ADWufYTODqnqWgLy_RdV-46" value="+ setPosition(position: number | number[]): void" style="text;strokeColor=none;fillColor=none;align=left;verticalAlign=top;spacingLeft=4;spacingRight=4;overflow=hidden;rotatable=0;points=[[0,0.5],[1,0.5]];portConstraint=eastwest;" parent="ADWufYTODqnqWgLy_RdV-40" vertex="1">
          <mxGeometry y="170.85714285714286" width="320" height="27" as="geometry" />
        </mxCell>
        <mxCell id="pQNl8kFYSYKoo_jJR8Nf-210" value="+ addObserver(observer: IObserver): void" style="text;strokeColor=none;fillColor=none;align=left;verticalAlign=top;spacingLeft=4;spacingRight=4;overflow=hidden;rotatable=0;points=[[0,0.5],[1,0.5]];portConstraint=eastwest;" parent="ADWufYTODqnqWgLy_RdV-40" vertex="1">
          <mxGeometry y="197.85714285714286" width="320" height="27" as="geometry" />
        </mxCell>
        <mxCell id="pQNl8kFYSYKoo_jJR8Nf-211" value="- notifyObservers(): void" style="text;strokeColor=none;fillColor=none;align=left;verticalAlign=top;spacingLeft=4;spacingRight=4;overflow=hidden;rotatable=0;points=[[0,0.5],[1,0.5]];portConstraint=eastwest;" parent="ADWufYTODqnqWgLy_RdV-40" vertex="1">
          <mxGeometry y="224.85714285714286" width="320" height="27" as="geometry" />
        </mxCell>
        <mxCell id="ADWufYTODqnqWgLy_RdV-47" value="+ getPosition(): number | number[]" style="text;strokeColor=none;fillColor=none;align=left;verticalAlign=top;spacingLeft=4;spacingRight=4;overflow=hidden;rotatable=0;points=[[0,0.5],[1,0.5]];portConstraint=eastwest;" parent="ADWufYTODqnqWgLy_RdV-40" vertex="1">
          <mxGeometry y="251.85714285714286" width="320" height="27" as="geometry" />
        </mxCell>
        <mxCell id="ADWufYTODqnqWgLy_RdV-48" value="Ruler" style="swimlane;fontStyle=1;align=center;verticalAlign=top;childLayout=stackLayout;horizontal=1;startSize=29.75;horizontalStack=0;resizeParent=1;resizeParentMax=0;resizeLast=0;collapsible=0;marginBottom=0;" parent="1" vertex="1">
          <mxGeometry x="1802" y="1780" width="266" height="155.75" as="geometry" />
        </mxCell>
        <mxCell id="ADWufYTODqnqWgLy_RdV-49" value="- options: IOptions" style="text;strokeColor=none;fillColor=none;align=left;verticalAlign=top;spacingLeft=4;spacingRight=4;overflow=hidden;rotatable=0;points=[[0,0.5],[1,0.5]];portConstraint=eastwest;" parent="ADWufYTODqnqWgLy_RdV-48" vertex="1">
          <mxGeometry y="29.75" width="266" height="30" as="geometry" />
        </mxCell>
        <mxCell id="ADWufYTODqnqWgLy_RdV-50" style="line;strokeWidth=1;fillColor=none;align=left;verticalAlign=middle;spacingTop=-1;spacingLeft=3;spacingRight=3;rotatable=0;labelPosition=right;points=[];portConstraint=eastwest;strokeColor=inherit;" parent="ADWufYTODqnqWgLy_RdV-48" vertex="1">
          <mxGeometry y="59.75" width="266" height="8" as="geometry" />
        </mxCell>
        <mxCell id="pQNl8kFYSYKoo_jJR8Nf-277" value="+updateOptions(id: number):void" style="text;strokeColor=none;fillColor=none;align=left;verticalAlign=top;spacingLeft=4;spacingRight=4;overflow=hidden;rotatable=0;points=[[0,0.5],[1,0.5]];portConstraint=eastwest;" parent="ADWufYTODqnqWgLy_RdV-48" vertex="1">
          <mxGeometry y="67.75" width="266" height="28" as="geometry" />
        </mxCell>
        <mxCell id="ADWufYTODqnqWgLy_RdV-51" value="+ renderRuler(): HTMLElement" style="text;strokeColor=none;fillColor=none;align=left;verticalAlign=top;spacingLeft=4;spacingRight=4;overflow=hidden;rotatable=0;points=[[0,0.5],[1,0.5]];portConstraint=eastwest;" parent="ADWufYTODqnqWgLy_RdV-48" vertex="1">
          <mxGeometry y="95.75" width="266" height="30" as="geometry" />
        </mxCell>
        <mxCell id="ADWufYTODqnqWgLy_RdV-52" value="+ getCalculatedTickStep(): number" style="text;strokeColor=none;fillColor=none;align=left;verticalAlign=top;spacingLeft=4;spacingRight=4;overflow=hidden;rotatable=0;points=[[0,0.5],[1,0.5]];portConstraint=eastwest;" parent="ADWufYTODqnqWgLy_RdV-48" vertex="1">
          <mxGeometry y="125.75" width="266" height="30" as="geometry" />
        </mxCell>
        <mxCell id="ADWufYTODqnqWgLy_RdV-53" value="&lt;&lt;interface&gt;&gt;&#xa;IObserver" style="swimlane;fontStyle=1;align=center;verticalAlign=top;childLayout=stackLayout;horizontal=1;startSize=48;horizontalStack=0;resizeParent=1;resizeParentMax=0;resizeLast=0;collapsible=0;marginBottom=0;" parent="1" vertex="1">
          <mxGeometry x="890" y="240" width="244" height="88" as="geometry" />
        </mxCell>
        <mxCell id="ADWufYTODqnqWgLy_RdV-54" style="line;strokeWidth=1;fillColor=none;align=left;verticalAlign=middle;spacingTop=-1;spacingLeft=3;spacingRight=3;rotatable=0;labelPosition=right;points=[];portConstraint=eastwest;strokeColor=inherit;" parent="ADWufYTODqnqWgLy_RdV-53" vertex="1">
          <mxGeometry y="48" width="244" height="8" as="geometry" />
        </mxCell>
        <mxCell id="ADWufYTODqnqWgLy_RdV-55" value="+ update(value: number | number[]): void" style="text;strokeColor=none;fillColor=none;align=left;verticalAlign=top;spacingLeft=4;spacingRight=4;overflow=hidden;rotatable=0;points=[[0,0.5],[1,0.5]];portConstraint=eastwest;" parent="ADWufYTODqnqWgLy_RdV-53" vertex="1">
          <mxGeometry y="56" width="244" height="32" as="geometry" />
        </mxCell>
        <mxCell id="ADWufYTODqnqWgLy_RdV-56" value="RangeSliderPresenter" style="swimlane;fontStyle=1;align=center;verticalAlign=top;childLayout=stackLayout;horizontal=1;startSize=26;horizontalStack=0;resizeParent=1;resizeParentMax=0;resizeLast=0;collapsible=0;marginBottom=0;" parent="1" vertex="1">
          <mxGeometry x="1393" y="920" width="267" height="270" as="geometry" />
        </mxCell>
        <mxCell id="ADWufYTODqnqWgLy_RdV-57" value="- model: RangeSlider" style="text;strokeColor=none;fillColor=none;align=left;verticalAlign=top;spacingLeft=4;spacingRight=4;overflow=hidden;rotatable=0;points=[[0,0.5],[1,0.5]];portConstraint=eastwest;" parent="ADWufYTODqnqWgLy_RdV-56" vertex="1">
          <mxGeometry y="26" width="267" height="26" as="geometry" />
        </mxCell>
        <mxCell id="ADWufYTODqnqWgLy_RdV-58" value="- view: RangeSliderView" style="text;strokeColor=none;fillColor=none;align=left;verticalAlign=top;spacingLeft=4;spacingRight=4;overflow=hidden;rotatable=0;points=[[0,0.5],[1,0.5]];portConstraint=eastwest;" parent="ADWufYTODqnqWgLy_RdV-56" vertex="1">
          <mxGeometry y="52" width="267" height="26" as="geometry" />
        </mxCell>
        <mxCell id="ADWufYTODqnqWgLy_RdV-59" value="- trackPresenter: rackPresenter" style="text;strokeColor=none;fillColor=none;align=left;verticalAlign=top;spacingLeft=4;spacingRight=4;overflow=hidden;rotatable=0;points=[[0,0.5],[1,0.5]];portConstraint=eastwest;" parent="ADWufYTODqnqWgLy_RdV-56" vertex="1">
          <mxGeometry y="78" width="267" height="26" as="geometry" />
        </mxCell>
        <mxCell id="ADWufYTODqnqWgLy_RdV-60" value="- thumbPresenter: ThumbPresenter" style="text;strokeColor=none;fillColor=none;align=left;verticalAlign=top;spacingLeft=4;spacingRight=4;overflow=hidden;rotatable=0;points=[[0,0.5],[1,0.5]];portConstraint=eastwest;" parent="ADWufYTODqnqWgLy_RdV-56" vertex="1">
          <mxGeometry y="104" width="267" height="26" as="geometry" />
        </mxCell>
        <mxCell id="ADWufYTODqnqWgLy_RdV-61" value="- fillPresenter: FillPresenter" style="text;strokeColor=none;fillColor=none;align=left;verticalAlign=top;spacingLeft=4;spacingRight=4;overflow=hidden;rotatable=0;points=[[0,0.5],[1,0.5]];portConstraint=eastwest;" parent="ADWufYTODqnqWgLy_RdV-56" vertex="1">
          <mxGeometry y="130" width="267" height="26" as="geometry" />
        </mxCell>
        <mxCell id="ADWufYTODqnqWgLy_RdV-62" style="line;strokeWidth=1;fillColor=none;align=left;verticalAlign=middle;spacingTop=-1;spacingLeft=3;spacingRight=3;rotatable=0;labelPosition=right;points=[];portConstraint=eastwest;strokeColor=inherit;" parent="ADWufYTODqnqWgLy_RdV-56" vertex="1">
          <mxGeometry y="156" width="267" height="8" as="geometry" />
        </mxCell>
        <mxCell id="pQNl8kFYSYKoo_jJR8Nf-270" value="+updateOptions(id: number):void" style="text;strokeColor=none;fillColor=none;align=left;verticalAlign=top;spacingLeft=4;spacingRight=4;overflow=hidden;rotatable=0;points=[[0,0.5],[1,0.5]];portConstraint=eastwest;" parent="ADWufYTODqnqWgLy_RdV-56" vertex="1">
          <mxGeometry y="164" width="267" height="28" as="geometry" />
        </mxCell>
        <mxCell id="ADWufYTODqnqWgLy_RdV-63" value="+ getMediator():Mediator" style="text;strokeColor=none;fillColor=none;align=left;verticalAlign=top;spacingLeft=4;spacingRight=4;overflow=hidden;rotatable=0;points=[[0,0.5],[1,0.5]];portConstraint=eastwest;" parent="ADWufYTODqnqWgLy_RdV-56" vertex="1">
          <mxGeometry y="192" width="267" height="26" as="geometry" />
        </mxCell>
        <mxCell id="ADWufYTODqnqWgLy_RdV-64" value="+ update(value: NumberOrArray): void" style="text;strokeColor=none;fillColor=none;align=left;verticalAlign=top;spacingLeft=4;spacingRight=4;overflow=hidden;rotatable=0;points=[[0,0.5],[1,0.5]];portConstraint=eastwest;" parent="ADWufYTODqnqWgLy_RdV-56" vertex="1">
          <mxGeometry y="218" width="267" height="26" as="geometry" />
        </mxCell>
        <mxCell id="ADWufYTODqnqWgLy_RdV-65" value="+ updateValue(value: number): void" style="text;strokeColor=none;fillColor=none;align=left;verticalAlign=top;spacingLeft=4;spacingRight=4;overflow=hidden;rotatable=0;points=[[0,0.5],[1,0.5]];portConstraint=eastwest;" parent="ADWufYTODqnqWgLy_RdV-56" vertex="1">
          <mxGeometry y="244" width="267" height="26" as="geometry" />
        </mxCell>
        <mxCell id="qulfv3zckrtIXR-0wow6-3" value="" style="endArrow=block;dashed=1;endFill=0;endSize=12;html=1;rounded=0;edgeStyle=orthogonalEdgeStyle;exitX=0;exitY=0.5;exitDx=0;exitDy=0;" parent="ADWufYTODqnqWgLy_RdV-56" source="ADWufYTODqnqWgLy_RdV-64" edge="1">
          <mxGeometry width="160" relative="1" as="geometry">
            <mxPoint x="-643" y="623" as="sourcePoint" />
            <mxPoint x="-563" y="210" as="targetPoint" />
            <Array as="points">
              <mxPoint y="203" />
              <mxPoint x="-63" y="203" />
              <mxPoint x="-63" y="1050" />
              <mxPoint x="-563" y="1050" />
            </Array>
          </mxGeometry>
        </mxCell>
        <mxCell id="qulfv3zckrtIXR-0wow6-7" value="implements" style="edgeLabel;html=1;align=center;verticalAlign=middle;resizable=0;points=[];fontSize=12;" parent="qulfv3zckrtIXR-0wow6-3" vertex="1" connectable="0">
          <mxGeometry x="0.827" y="-1" relative="1" as="geometry">
            <mxPoint y="-1" as="offset" />
          </mxGeometry>
        </mxCell>
        <mxCell id="pQNl8kFYSYKoo_jJR8Nf-27" value="implements" style="edgeLabel;html=1;align=center;verticalAlign=middle;resizable=0;points=[];" parent="qulfv3zckrtIXR-0wow6-3" vertex="1" connectable="0">
          <mxGeometry x="-0.8779" y="1" relative="1" as="geometry">
            <mxPoint y="103" as="offset" />
          </mxGeometry>
        </mxCell>
        <mxCell id="ADWufYTODqnqWgLy_RdV-66" value="ThumbPresenter" style="swimlane;fontStyle=1;align=center;verticalAlign=top;childLayout=stackLayout;horizontal=1;startSize=24.58823529411765;horizontalStack=0;resizeParent=1;resizeParentMax=0;resizeLast=0;collapsible=0;marginBottom=0;" parent="1" vertex="1">
          <mxGeometry x="890" y="927" width="360" height="514.5882352941177" as="geometry" />
        </mxCell>
        <mxCell id="ADWufYTODqnqWgLy_RdV-67" value="- model: IThumbModel;" style="text;strokeColor=none;fillColor=none;align=left;verticalAlign=top;spacingLeft=4;spacingRight=4;overflow=hidden;rotatable=0;points=[[0,0.5],[1,0.5]];portConstraint=eastwest;" parent="ADWufYTODqnqWgLy_RdV-66" vertex="1">
          <mxGeometry y="24.58823529411765" width="360" height="25" as="geometry" />
        </mxCell>
        <mxCell id="ADWufYTODqnqWgLy_RdV-68" value="- view: ThumbView | ThumbView[];" style="text;strokeColor=none;fillColor=none;align=left;verticalAlign=top;spacingLeft=4;spacingRight=4;overflow=hidden;rotatable=0;points=[[0,0.5],[1,0.5]];portConstraint=eastwest;" parent="ADWufYTODqnqWgLy_RdV-66" vertex="1">
          <mxGeometry y="49.58823529411765" width="360" height="25" as="geometry" />
        </mxCell>
        <mxCell id="ADWufYTODqnqWgLy_RdV-69" value="- mediator?: Mediator;" style="text;strokeColor=none;fillColor=none;align=left;verticalAlign=top;spacingLeft=4;spacingRight=4;overflow=hidden;rotatable=0;points=[[0,0.5],[1,0.5]];portConstraint=eastwest;" parent="ADWufYTODqnqWgLy_RdV-66" vertex="1">
          <mxGeometry y="74.58823529411765" width="360" height="25" as="geometry" />
        </mxCell>
        <mxCell id="ADWufYTODqnqWgLy_RdV-70" value="- position!: NumberOrArray;" style="text;strokeColor=none;fillColor=none;align=left;verticalAlign=top;spacingLeft=4;spacingRight=4;overflow=hidden;rotatable=0;points=[[0,0.5],[1,0.5]];portConstraint=eastwest;" parent="ADWufYTODqnqWgLy_RdV-66" vertex="1">
          <mxGeometry y="99.58823529411765" width="360" height="25" as="geometry" />
        </mxCell>
        <mxCell id="ADWufYTODqnqWgLy_RdV-71" style="line;strokeWidth=1;fillColor=none;align=left;verticalAlign=middle;spacingTop=-1;spacingLeft=3;spacingRight=3;rotatable=0;labelPosition=right;points=[];portConstraint=eastwest;strokeColor=inherit;" parent="ADWufYTODqnqWgLy_RdV-66" vertex="1">
          <mxGeometry y="124.58823529411765" width="360" height="8" as="geometry" />
        </mxCell>
        <mxCell id="pQNl8kFYSYKoo_jJR8Nf-271" value="+updateOptions(id: number):void" style="text;strokeColor=none;fillColor=none;align=left;verticalAlign=top;spacingLeft=4;spacingRight=4;overflow=hidden;rotatable=0;points=[[0,0.5],[1,0.5]];portConstraint=eastwest;" parent="ADWufYTODqnqWgLy_RdV-66" vertex="1">
          <mxGeometry y="132.58823529411765" width="360" height="28" as="geometry" />
        </mxCell>
        <mxCell id="ADWufYTODqnqWgLy_RdV-72" value="- startDrag(e: MouseEvent | TouchEvent): void" style="text;strokeColor=none;fillColor=none;align=left;verticalAlign=top;spacingLeft=4;spacingRight=4;overflow=hidden;rotatable=0;points=[[0,0.5],[1,0.5]];portConstraint=eastwest;" parent="ADWufYTODqnqWgLy_RdV-66" vertex="1">
          <mxGeometry y="160.58823529411765" width="360" height="25" as="geometry" />
        </mxCell>
        <mxCell id="ADWufYTODqnqWgLy_RdV-73" value="- drag(event: MouseEvent | TouchEvent): void" style="text;strokeColor=none;fillColor=none;align=left;verticalAlign=top;spacingLeft=4;spacingRight=4;overflow=hidden;rotatable=0;points=[[0,0.5],[1,0.5]];portConstraint=eastwest;" parent="ADWufYTODqnqWgLy_RdV-66" vertex="1">
          <mxGeometry y="185.58823529411765" width="360" height="25" as="geometry" />
        </mxCell>
        <mxCell id="ADWufYTODqnqWgLy_RdV-74" value="- stopDrag(): void" style="text;strokeColor=none;fillColor=none;align=left;verticalAlign=top;spacingLeft=4;spacingRight=4;overflow=hidden;rotatable=0;points=[[0,0.5],[1,0.5]];portConstraint=eastwest;" parent="ADWufYTODqnqWgLy_RdV-66" vertex="1">
          <mxGeometry y="210.58823529411765" width="360" height="25" as="geometry" />
        </mxCell>
        <mxCell id="ADWufYTODqnqWgLy_RdV-75" value="+ addDragListeners(context: ThumbPresenter): void" style="text;strokeColor=none;fillColor=none;align=left;verticalAlign=top;spacingLeft=4;spacingRight=4;overflow=hidden;rotatable=0;points=[[0,0.5],[1,0.5]];portConstraint=eastwest;" parent="ADWufYTODqnqWgLy_RdV-66" vertex="1">
          <mxGeometry y="235.58823529411765" width="360" height="25" as="geometry" />
        </mxCell>
        <mxCell id="ADWufYTODqnqWgLy_RdV-76" value="+ setThumbDataValue(thumb: ThumbView | ThumbView[]): void" style="text;strokeColor=none;fillColor=none;align=left;verticalAlign=top;spacingLeft=4;spacingRight=4;overflow=hidden;rotatable=0;points=[[0,0.5],[1,0.5]];portConstraint=eastwest;" parent="ADWufYTODqnqWgLy_RdV-66" vertex="1">
          <mxGeometry y="260.5882352941177" width="360" height="25" as="geometry" />
        </mxCell>
        <mxCell id="ADWufYTODqnqWgLy_RdV-77" value="+ updateView():void" style="text;strokeColor=none;fillColor=none;align=left;verticalAlign=top;spacingLeft=4;spacingRight=4;overflow=hidden;rotatable=0;points=[[0,0.5],[1,0.5]];portConstraint=eastwest;" parent="ADWufYTODqnqWgLy_RdV-66" vertex="1">
          <mxGeometry y="285.5882352941177" width="360" height="25" as="geometry" />
        </mxCell>
        <mxCell id="ADWufYTODqnqWgLy_RdV-78" value="+ getCurrentPosition(): number | number[]" style="text;strokeColor=none;fillColor=none;align=left;verticalAlign=top;spacingLeft=4;spacingRight=4;overflow=hidden;rotatable=0;points=[[0,0.5],[1,0.5]];portConstraint=eastwest;" parent="ADWufYTODqnqWgLy_RdV-66" vertex="1">
          <mxGeometry y="310.5882352941177" width="360" height="25" as="geometry" />
        </mxCell>
        <mxCell id="ADWufYTODqnqWgLy_RdV-79" value="+ setActiveThumb(thumb: HTMLElement)" style="text;strokeColor=none;fillColor=none;align=left;verticalAlign=top;spacingLeft=4;spacingRight=4;overflow=hidden;rotatable=0;points=[[0,0.5],[1,0.5]];portConstraint=eastwest;" parent="ADWufYTODqnqWgLy_RdV-66" vertex="1">
          <mxGeometry y="335.5882352941177" width="360" height="25" as="geometry" />
        </mxCell>
        <mxCell id="ADWufYTODqnqWgLy_RdV-80" value="+ getStartPointFromMediator(): number" style="text;strokeColor=none;fillColor=none;align=left;verticalAlign=top;spacingLeft=4;spacingRight=4;overflow=hidden;rotatable=0;points=[[0,0.5],[1,0.5]];portConstraint=eastwest;" parent="ADWufYTODqnqWgLy_RdV-66" vertex="1">
          <mxGeometry y="360.5882352941177" width="360" height="25" as="geometry" />
        </mxCell>
        <mxCell id="ADWufYTODqnqWgLy_RdV-81" value="+ externalSetValue(value: NumberOrArray): void" style="text;strokeColor=none;fillColor=none;align=left;verticalAlign=top;spacingLeft=4;spacingRight=4;overflow=hidden;rotatable=0;points=[[0,0.5],[1,0.5]];portConstraint=eastwest;" parent="ADWufYTODqnqWgLy_RdV-66" vertex="1">
          <mxGeometry y="385.5882352941177" width="360" height="25" as="geometry" />
        </mxCell>
        <mxCell id="ADWufYTODqnqWgLy_RdV-82" value="+ ExternalAddOnChangeListener(handler: Function): void" style="text;strokeColor=none;fillColor=none;align=left;verticalAlign=top;spacingLeft=4;spacingRight=4;overflow=hidden;rotatable=0;points=[[0,0.5],[1,0.5]];portConstraint=eastwest;" parent="ADWufYTODqnqWgLy_RdV-66" vertex="1">
          <mxGeometry y="410.5882352941177" width="360" height="25" as="geometry" />
        </mxCell>
        <mxCell id="ADWufYTODqnqWgLy_RdV-83" value="+ onTrackClick(clickPosition: number): void" style="text;strokeColor=none;fillColor=none;align=left;verticalAlign=top;spacingLeft=4;spacingRight=4;overflow=hidden;rotatable=0;points=[[0,0.5],[1,0.5]];portConstraint=eastwest;" parent="ADWufYTODqnqWgLy_RdV-66" vertex="1">
          <mxGeometry y="435.5882352941177" width="360" height="25" as="geometry" />
        </mxCell>
        <mxCell id="pQNl8kFYSYKoo_jJR8Nf-255" value="+ addObserver(observer: IObserver): void" style="text;strokeColor=none;fillColor=none;align=left;verticalAlign=top;spacingLeft=4;spacingRight=4;overflow=hidden;rotatable=0;points=[[0,0.5],[1,0.5]];portConstraint=eastwest;" parent="ADWufYTODqnqWgLy_RdV-66" vertex="1">
          <mxGeometry y="460.5882352941177" width="360" height="27" as="geometry" />
        </mxCell>
        <mxCell id="pQNl8kFYSYKoo_jJR8Nf-256" value="- notifyObservers(): void" style="text;strokeColor=none;fillColor=none;align=left;verticalAlign=top;spacingLeft=4;spacingRight=4;overflow=hidden;rotatable=0;points=[[0,0.5],[1,0.5]];portConstraint=eastwest;" parent="ADWufYTODqnqWgLy_RdV-66" vertex="1">
          <mxGeometry y="487.5882352941177" width="360" height="27" as="geometry" />
        </mxCell>
        <mxCell id="ADWufYTODqnqWgLy_RdV-84" value="TrackPresenter" style="swimlane;fontStyle=1;align=center;verticalAlign=top;childLayout=stackLayout;horizontal=1;startSize=26;horizontalStack=0;resizeParent=1;resizeParentMax=0;resizeLast=0;collapsible=0;marginBottom=0;" parent="1" vertex="1">
          <mxGeometry x="1780" y="920" width="310" height="270" as="geometry" />
        </mxCell>
        <mxCell id="ADWufYTODqnqWgLy_RdV-85" value="- mediator?: Mediator" style="text;strokeColor=none;fillColor=none;align=left;verticalAlign=top;spacingLeft=4;spacingRight=4;overflow=hidden;rotatable=0;points=[[0,0.5],[1,0.5]];portConstraint=eastwest;" parent="ADWufYTODqnqWgLy_RdV-84" vertex="1">
          <mxGeometry y="26" width="310" height="26" as="geometry" />
        </mxCell>
        <mxCell id="ADWufYTODqnqWgLy_RdV-86" value="- ruler: Ruler" style="text;strokeColor=none;fillColor=none;align=left;verticalAlign=top;spacingLeft=4;spacingRight=4;overflow=hidden;rotatable=0;points=[[0,0.5],[1,0.5]];portConstraint=eastwest;" parent="ADWufYTODqnqWgLy_RdV-84" vertex="1">
          <mxGeometry y="52" width="310" height="26" as="geometry" />
        </mxCell>
        <mxCell id="ADWufYTODqnqWgLy_RdV-87" value="- trackModel: TrackModel" style="text;strokeColor=none;fillColor=none;align=left;verticalAlign=top;spacingLeft=4;spacingRight=4;overflow=hidden;rotatable=0;points=[[0,0.5],[1,0.5]];portConstraint=eastwest;" parent="ADWufYTODqnqWgLy_RdV-84" vertex="1">
          <mxGeometry y="78" width="310" height="26" as="geometry" />
        </mxCell>
        <mxCell id="ADWufYTODqnqWgLy_RdV-88" value="- trackView: TrackView" style="text;strokeColor=none;fillColor=none;align=left;verticalAlign=top;spacingLeft=4;spacingRight=4;overflow=hidden;rotatable=0;points=[[0,0.5],[1,0.5]];portConstraint=eastwest;" parent="ADWufYTODqnqWgLy_RdV-84" vertex="1">
          <mxGeometry y="104" width="310" height="26" as="geometry" />
        </mxCell>
        <mxCell id="ADWufYTODqnqWgLy_RdV-89" style="line;strokeWidth=1;fillColor=none;align=left;verticalAlign=middle;spacingTop=-1;spacingLeft=3;spacingRight=3;rotatable=0;labelPosition=right;points=[];portConstraint=eastwest;strokeColor=inherit;" parent="ADWufYTODqnqWgLy_RdV-84" vertex="1">
          <mxGeometry y="130" width="310" height="8" as="geometry" />
        </mxCell>
        <mxCell id="pQNl8kFYSYKoo_jJR8Nf-272" value="+updateOptions(id: number):void" style="text;strokeColor=none;fillColor=none;align=left;verticalAlign=top;spacingLeft=4;spacingRight=4;overflow=hidden;rotatable=0;points=[[0,0.5],[1,0.5]];portConstraint=eastwest;" parent="ADWufYTODqnqWgLy_RdV-84" vertex="1">
          <mxGeometry y="138" width="310" height="28" as="geometry" />
        </mxCell>
        <mxCell id="ADWufYTODqnqWgLy_RdV-90" value="+ update(): void" style="text;strokeColor=none;fillColor=none;align=left;verticalAlign=top;spacingLeft=4;spacingRight=4;overflow=hidden;rotatable=0;points=[[0,0.5],[1,0.5]];portConstraint=eastwest;" parent="ADWufYTODqnqWgLy_RdV-84" vertex="1">
          <mxGeometry y="166" width="310" height="26" as="geometry" />
        </mxCell>
        <mxCell id="ADWufYTODqnqWgLy_RdV-91" value="+ trackClickHandler(e: MouseEvent | TouchEvent): void" style="text;strokeColor=none;fillColor=none;align=left;verticalAlign=top;spacingLeft=4;spacingRight=4;overflow=hidden;rotatable=0;points=[[0,0.5],[1,0.5]];portConstraint=eastwest;" parent="ADWufYTODqnqWgLy_RdV-84" vertex="1">
          <mxGeometry y="192" width="310" height="26" as="geometry" />
        </mxCell>
        <mxCell id="ADWufYTODqnqWgLy_RdV-92" value="+ setMediator(mediator?: Mediator): void" style="text;strokeColor=none;fillColor=none;align=left;verticalAlign=top;spacingLeft=4;spacingRight=4;overflow=hidden;rotatable=0;points=[[0,0.5],[1,0.5]];portConstraint=eastwest;" parent="ADWufYTODqnqWgLy_RdV-84" vertex="1">
          <mxGeometry y="218" width="310" height="26" as="geometry" />
        </mxCell>
        <mxCell id="ADWufYTODqnqWgLy_RdV-93" value="+ getTrackStartPoint():" style="text;strokeColor=none;fillColor=none;align=left;verticalAlign=top;spacingLeft=4;spacingRight=4;overflow=hidden;rotatable=0;points=[[0,0.5],[1,0.5]];portConstraint=eastwest;" parent="ADWufYTODqnqWgLy_RdV-84" vertex="1">
          <mxGeometry y="244" width="310" height="26" as="geometry" />
        </mxCell>
        <mxCell id="qulfv3zckrtIXR-0wow6-5" value="" style="endArrow=block;dashed=1;endFill=0;endSize=12;html=1;rounded=0;edgeStyle=orthogonalEdgeStyle;exitX=0;exitY=0.5;exitDx=0;exitDy=0;" parent="ADWufYTODqnqWgLy_RdV-84" source="ADWufYTODqnqWgLy_RdV-90" edge="1">
          <mxGeometry width="160" relative="1" as="geometry">
            <mxPoint x="-10" y="10" as="sourcePoint" />
            <mxPoint x="-450" y="1050" as="targetPoint" />
            <Array as="points">
              <mxPoint y="151" />
              <mxPoint x="-50" y="151" />
              <mxPoint x="-50" y="1050" />
            </Array>
          </mxGeometry>
        </mxCell>
        <mxCell id="qulfv3zckrtIXR-0wow6-8" value="implements" style="edgeLabel;html=1;align=center;verticalAlign=middle;resizable=0;points=[];fontSize=12;" parent="qulfv3zckrtIXR-0wow6-5" vertex="1" connectable="0">
          <mxGeometry x="0.7046" y="1" relative="1" as="geometry">
            <mxPoint x="-293" y="-1" as="offset" />
          </mxGeometry>
        </mxCell>
        <mxCell id="ADWufYTODqnqWgLy_RdV-94" value="FillPresenter" style="swimlane;fontStyle=1;align=center;verticalAlign=top;childLayout=stackLayout;horizontal=1;startSize=26.375;horizontalStack=0;resizeParent=1;resizeParentMax=0;resizeLast=0;collapsible=0;marginBottom=0;" parent="1" vertex="1">
          <mxGeometry x="2210" y="920" width="340" height="244.375" as="geometry" />
        </mxCell>
        <mxCell id="ADWufYTODqnqWgLy_RdV-95" value="- mediator?: Mediator" style="text;strokeColor=none;fillColor=none;align=left;verticalAlign=top;spacingLeft=4;spacingRight=4;overflow=hidden;rotatable=0;points=[[0,0.5],[1,0.5]];portConstraint=eastwest;" parent="ADWufYTODqnqWgLy_RdV-94" vertex="1">
          <mxGeometry y="26.375" width="340" height="26" as="geometry" />
        </mxCell>
        <mxCell id="ADWufYTODqnqWgLy_RdV-96" value="- $fillView: FillView" style="text;strokeColor=none;fillColor=none;align=left;verticalAlign=top;spacingLeft=4;spacingRight=4;overflow=hidden;rotatable=0;points=[[0,0.5],[1,0.5]];portConstraint=eastwest;" parent="ADWufYTODqnqWgLy_RdV-94" vertex="1">
          <mxGeometry y="52.375" width="340" height="26" as="geometry" />
        </mxCell>
        <mxCell id="ADWufYTODqnqWgLy_RdV-97" value="- fillModel: FillModel" style="text;strokeColor=none;fillColor=none;align=left;verticalAlign=top;spacingLeft=4;spacingRight=4;overflow=hidden;rotatable=0;points=[[0,0.5],[1,0.5]];portConstraint=eastwest;" parent="ADWufYTODqnqWgLy_RdV-94" vertex="1">
          <mxGeometry y="78.375" width="340" height="26" as="geometry" />
        </mxCell>
        <mxCell id="ADWufYTODqnqWgLy_RdV-98" value="- trackModel: TrackModel" style="text;strokeColor=none;fillColor=none;align=left;verticalAlign=top;spacingLeft=4;spacingRight=4;overflow=hidden;rotatable=0;points=[[0,0.5],[1,0.5]];portConstraint=eastwest;" parent="ADWufYTODqnqWgLy_RdV-94" vertex="1">
          <mxGeometry y="104.375" width="340" height="26" as="geometry" />
        </mxCell>
        <mxCell id="ADWufYTODqnqWgLy_RdV-99" style="line;strokeWidth=1;fillColor=none;align=left;verticalAlign=middle;spacingTop=-1;spacingLeft=3;spacingRight=3;rotatable=0;labelPosition=right;points=[];portConstraint=eastwest;strokeColor=inherit;" parent="ADWufYTODqnqWgLy_RdV-94" vertex="1">
          <mxGeometry y="130.375" width="340" height="8" as="geometry" />
        </mxCell>
        <mxCell id="pQNl8kFYSYKoo_jJR8Nf-273" value="+updateOptions(id: number):void" style="text;strokeColor=none;fillColor=none;align=left;verticalAlign=top;spacingLeft=4;spacingRight=4;overflow=hidden;rotatable=0;points=[[0,0.5],[1,0.5]];portConstraint=eastwest;" parent="ADWufYTODqnqWgLy_RdV-94" vertex="1">
          <mxGeometry y="138.375" width="340" height="28" as="geometry" />
        </mxCell>
        <mxCell id="ADWufYTODqnqWgLy_RdV-100" value="+ update(): void" style="text;strokeColor=none;fillColor=none;align=left;verticalAlign=top;spacingLeft=4;spacingRight=4;overflow=hidden;rotatable=0;points=[[0,0.5],[1,0.5]];portConstraint=eastwest;" parent="ADWufYTODqnqWgLy_RdV-94" vertex="1">
          <mxGeometry y="166.375" width="340" height="26" as="geometry" />
        </mxCell>
        <mxCell id="ADWufYTODqnqWgLy_RdV-101" value="+ setMediator(mediator?: Mediator): void" style="text;strokeColor=none;fillColor=none;align=left;verticalAlign=top;spacingLeft=4;spacingRight=4;overflow=hidden;rotatable=0;points=[[0,0.5],[1,0.5]];portConstraint=eastwest;" parent="ADWufYTODqnqWgLy_RdV-94" vertex="1">
          <mxGeometry y="192.375" width="340" height="26" as="geometry" />
        </mxCell>
        <mxCell id="ADWufYTODqnqWgLy_RdV-102" value="+ onThumbPositionChange(position: number | number[]): void" style="text;strokeColor=none;fillColor=none;align=left;verticalAlign=top;spacingLeft=4;spacingRight=4;overflow=hidden;rotatable=0;points=[[0,0.5],[1,0.5]];portConstraint=eastwest;" parent="ADWufYTODqnqWgLy_RdV-94" vertex="1">
          <mxGeometry y="218.375" width="340" height="26" as="geometry" />
        </mxCell>
        <mxCell id="qulfv3zckrtIXR-0wow6-10" value="" style="endArrow=block;dashed=1;endFill=0;endSize=12;html=1;rounded=0;edgeStyle=orthogonalEdgeStyle;exitX=0.005;exitY=0.393;exitDx=0;exitDy=0;exitPerimeter=0;" parent="ADWufYTODqnqWgLy_RdV-94" source="pQNl8kFYSYKoo_jJR8Nf-273" edge="1">
          <mxGeometry width="160" relative="1" as="geometry">
            <mxPoint x="-20" y="150" as="sourcePoint" />
            <mxPoint x="-480" y="1050" as="targetPoint" />
            <Array as="points">
              <mxPoint x="-50" y="149" />
              <mxPoint x="-50" y="1050" />
            </Array>
          </mxGeometry>
        </mxCell>
        <mxCell id="qulfv3zckrtIXR-0wow6-11" value="implements" style="edgeLabel;html=1;align=center;verticalAlign=middle;resizable=0;points=[];fontSize=12;" parent="qulfv3zckrtIXR-0wow6-10" vertex="1" connectable="0">
          <mxGeometry x="0.6861" y="3" relative="1" as="geometry">
            <mxPoint x="163" y="-3" as="offset" />
          </mxGeometry>
        </mxCell>
        <mxCell id="ADWufYTODqnqWgLy_RdV-103" value="Mediator" style="swimlane;fontStyle=1;align=center;verticalAlign=top;childLayout=stackLayout;horizontal=1;startSize=26;horizontalStack=0;resizeParent=1;resizeParentMax=0;resizeLast=0;collapsible=0;marginBottom=0;" parent="1" vertex="1">
          <mxGeometry x="1660" y="200" width="329" height="242" as="geometry" />
        </mxCell>
        <mxCell id="ADWufYTODqnqWgLy_RdV-104" value="- rangeSliderView: RangeSliderView" style="text;strokeColor=none;fillColor=none;align=left;verticalAlign=top;spacingLeft=4;spacingRight=4;overflow=hidden;rotatable=0;points=[[0,0.5],[1,0.5]];portConstraint=eastwest;" parent="ADWufYTODqnqWgLy_RdV-103" vertex="1">
          <mxGeometry y="26" width="329" height="26" as="geometry" />
        </mxCell>
        <mxCell id="ADWufYTODqnqWgLy_RdV-105" value="- thumbPresenter: ThumbPresenter" style="text;strokeColor=none;fillColor=none;align=left;verticalAlign=top;spacingLeft=4;spacingRight=4;overflow=hidden;rotatable=0;points=[[0,0.5],[1,0.5]];portConstraint=eastwest;" parent="ADWufYTODqnqWgLy_RdV-103" vertex="1">
          <mxGeometry y="52" width="329" height="26" as="geometry" />
        </mxCell>
        <mxCell id="ADWufYTODqnqWgLy_RdV-106" value="- trackPresenter: TrackPresenter" style="text;strokeColor=none;fillColor=none;align=left;verticalAlign=top;spacingLeft=4;spacingRight=4;overflow=hidden;rotatable=0;points=[[0,0.5],[1,0.5]];portConstraint=eastwest;" parent="ADWufYTODqnqWgLy_RdV-103" vertex="1">
          <mxGeometry y="78" width="329" height="26" as="geometry" />
        </mxCell>
        <mxCell id="ADWufYTODqnqWgLy_RdV-107" value="- fillPresenter: FillPresenter" style="text;strokeColor=none;fillColor=none;align=left;verticalAlign=top;spacingLeft=4;spacingRight=4;overflow=hidden;rotatable=0;points=[[0,0.5],[1,0.5]];portConstraint=eastwest;" parent="ADWufYTODqnqWgLy_RdV-103" vertex="1">
          <mxGeometry y="104" width="329" height="26" as="geometry" />
        </mxCell>
        <mxCell id="ADWufYTODqnqWgLy_RdV-108" style="line;strokeWidth=1;fillColor=none;align=left;verticalAlign=middle;spacingTop=-1;spacingLeft=3;spacingRight=3;rotatable=0;labelPosition=right;points=[];portConstraint=eastwest;strokeColor=inherit;" parent="ADWufYTODqnqWgLy_RdV-103" vertex="1">
          <mxGeometry y="130" width="329" height="8" as="geometry" />
        </mxCell>
        <mxCell id="ADWufYTODqnqWgLy_RdV-109" value="+ notifyThumbPositionChange(): void" style="text;strokeColor=none;fillColor=none;align=left;verticalAlign=top;spacingLeft=4;spacingRight=4;overflow=hidden;rotatable=0;points=[[0,0.5],[1,0.5]];portConstraint=eastwest;" parent="ADWufYTODqnqWgLy_RdV-103" vertex="1">
          <mxGeometry y="138" width="329" height="26" as="geometry" />
        </mxCell>
        <mxCell id="ADWufYTODqnqWgLy_RdV-110" value="+ notifyTrackClick(position: number): void" style="text;strokeColor=none;fillColor=none;align=left;verticalAlign=top;spacingLeft=4;spacingRight=4;overflow=hidden;rotatable=0;points=[[0,0.5],[1,0.5]];portConstraint=eastwest;" parent="ADWufYTODqnqWgLy_RdV-103" vertex="1">
          <mxGeometry y="164" width="329" height="26" as="geometry" />
        </mxCell>
        <mxCell id="ADWufYTODqnqWgLy_RdV-111" value="+ notifyFillPosition(position: number | number[]): void" style="text;strokeColor=none;fillColor=none;align=left;verticalAlign=top;spacingLeft=4;spacingRight=4;overflow=hidden;rotatable=0;points=[[0,0.5],[1,0.5]];portConstraint=eastwest;" parent="ADWufYTODqnqWgLy_RdV-103" vertex="1">
          <mxGeometry y="190" width="329" height="26" as="geometry" />
        </mxCell>
        <mxCell id="ADWufYTODqnqWgLy_RdV-112" value="+ getStartPointFromTrack(): object" style="text;strokeColor=none;fillColor=none;align=left;verticalAlign=top;spacingLeft=4;spacingRight=4;overflow=hidden;rotatable=0;points=[[0,0.5],[1,0.5]];portConstraint=eastwest;" parent="ADWufYTODqnqWgLy_RdV-103" vertex="1">
          <mxGeometry y="216" width="329" height="26" as="geometry" />
        </mxCell>
        <mxCell id="ADWufYTODqnqWgLy_RdV-113" value="ThumbView" style="swimlane;fontStyle=1;align=center;verticalAlign=top;childLayout=stackLayout;horizontal=1;startSize=25.866666666666667;horizontalStack=0;resizeParent=1;resizeParentMax=0;resizeLast=0;collapsible=0;marginBottom=0;" parent="1" vertex="1">
          <mxGeometry x="890" y="1500" width="322" height="413.99666666666667" as="geometry" />
        </mxCell>
        <mxCell id="ADWufYTODqnqWgLy_RdV-114" value="- $thumb: HTMLElement" style="text;strokeColor=none;fillColor=none;align=left;verticalAlign=top;spacingLeft=4;spacingRight=4;overflow=hidden;rotatable=0;points=[[0,0.5],[1,0.5]];portConstraint=eastwest;" parent="ADWufYTODqnqWgLy_RdV-113" vertex="1">
          <mxGeometry y="25.866666666666667" width="322" height="26" as="geometry" />
        </mxCell>
        <mxCell id="ADWufYTODqnqWgLy_RdV-115" value="- $parent: HTMLElement" style="text;strokeColor=none;fillColor=none;align=left;verticalAlign=top;spacingLeft=4;spacingRight=4;overflow=hidden;rotatable=0;points=[[0,0.5],[1,0.5]];portConstraint=eastwest;" parent="ADWufYTODqnqWgLy_RdV-113" vertex="1">
          <mxGeometry y="51.86666666666667" width="322" height="26" as="geometry" />
        </mxCell>
        <mxCell id="ADWufYTODqnqWgLy_RdV-116" value="- $tooltip: HTMLElement" style="text;strokeColor=none;fillColor=none;align=left;verticalAlign=top;spacingLeft=4;spacingRight=4;overflow=hidden;rotatable=0;points=[[0,0.5],[1,0.5]];portConstraint=eastwest;" parent="ADWufYTODqnqWgLy_RdV-113" vertex="1">
          <mxGeometry y="77.86666666666667" width="322" height="26" as="geometry" />
        </mxCell>
        <mxCell id="ADWufYTODqnqWgLy_RdV-117" value="- dragging: boolean" style="text;strokeColor=none;fillColor=none;align=left;verticalAlign=top;spacingLeft=4;spacingRight=4;overflow=hidden;rotatable=0;points=[[0,0.5],[1,0.5]];portConstraint=eastwest;" parent="ADWufYTODqnqWgLy_RdV-113" vertex="1">
          <mxGeometry y="103.86666666666667" width="322" height="26" as="geometry" />
        </mxCell>
        <mxCell id="ADWufYTODqnqWgLy_RdV-118" value="- isActive: boolean" style="text;strokeColor=none;fillColor=none;align=left;verticalAlign=top;spacingLeft=4;spacingRight=4;overflow=hidden;rotatable=0;points=[[0,0.5],[1,0.5]];portConstraint=eastwest;" parent="ADWufYTODqnqWgLy_RdV-113" vertex="1">
          <mxGeometry y="129.86666666666667" width="322" height="26" as="geometry" />
        </mxCell>
        <mxCell id="ADWufYTODqnqWgLy_RdV-119" style="line;strokeWidth=1;fillColor=none;align=left;verticalAlign=middle;spacingTop=-1;spacingLeft=3;spacingRight=3;rotatable=0;labelPosition=right;points=[];portConstraint=eastwest;strokeColor=inherit;" parent="ADWufYTODqnqWgLy_RdV-113" vertex="1">
          <mxGeometry y="155.86666666666667" width="322" height="8" as="geometry" />
        </mxCell>
        <mxCell id="ADWufYTODqnqWgLy_RdV-120" value="+ getTooltip(): HTMLElement" style="text;strokeColor=none;fillColor=none;align=left;verticalAlign=top;spacingLeft=4;spacingRight=4;overflow=hidden;rotatable=0;points=[[0,0.5],[1,0.5]];portConstraint=eastwest;" parent="ADWufYTODqnqWgLy_RdV-113" vertex="1">
          <mxGeometry y="163.86666666666667" width="322" height="26" as="geometry" />
        </mxCell>
        <mxCell id="ADWufYTODqnqWgLy_RdV-121" value="+ applyTooltipStyle(): void" style="text;strokeColor=none;fillColor=none;align=left;verticalAlign=top;spacingLeft=4;spacingRight=4;overflow=hidden;rotatable=0;points=[[0,0.5],[1,0.5]];portConstraint=eastwest;" parent="ADWufYTODqnqWgLy_RdV-113" vertex="1">
          <mxGeometry y="189.86666666666667" width="322" height="26" as="geometry" />
        </mxCell>
        <mxCell id="ADWufYTODqnqWgLy_RdV-125" value="+ applyThumbStyles(thumb: HTMLElement): void" style="text;strokeColor=none;fillColor=none;align=left;verticalAlign=top;spacingLeft=4;spacingRight=4;overflow=hidden;rotatable=0;points=[[0,0.5],[1,0.5]];portConstraint=eastwest;" parent="ADWufYTODqnqWgLy_RdV-113" vertex="1">
          <mxGeometry y="215.86666666666667" width="322" height="26" as="geometry" />
        </mxCell>
        <mxCell id="ADWufYTODqnqWgLy_RdV-122" value="+ render(position: NumberOrArray, &#xa; value: NumberOrArray, stringValue?: string | string[]): void" style="text;strokeColor=none;fillColor=none;align=left;verticalAlign=top;spacingLeft=4;spacingRight=4;overflow=hidden;rotatable=0;points=[[0,0.5],[1,0.5]];portConstraint=eastwest;" parent="ADWufYTODqnqWgLy_RdV-113" vertex="1">
          <mxGeometry y="241.86666666666667" width="322" height="38.13" as="geometry" />
        </mxCell>
        <mxCell id="ADWufYTODqnqWgLy_RdV-123" value="+ applyThumbAnimatingStyles(el: HTMLElement): void" style="text;strokeColor=none;fillColor=none;align=left;verticalAlign=top;spacingLeft=4;spacingRight=4;overflow=hidden;rotatable=0;points=[[0,0.5],[1,0.5]];portConstraint=eastwest;" parent="ADWufYTODqnqWgLy_RdV-113" vertex="1">
          <mxGeometry y="279.99666666666667" width="322" height="30" as="geometry" />
        </mxCell>
        <mxCell id="ADWufYTODqnqWgLy_RdV-124" value="+ thumbAnimationOff(el: HTMLElement): void" style="text;strokeColor=none;fillColor=none;align=left;verticalAlign=top;spacingLeft=4;spacingRight=4;overflow=hidden;rotatable=0;points=[[0,0.5],[1,0.5]];portConstraint=eastwest;" parent="ADWufYTODqnqWgLy_RdV-113" vertex="1">
          <mxGeometry y="309.99666666666667" width="322" height="26" as="geometry" />
        </mxCell>
        <mxCell id="ADWufYTODqnqWgLy_RdV-126" value="+ setOrientationPos(position: number | number[]): void" style="text;strokeColor=none;fillColor=none;align=left;verticalAlign=top;spacingLeft=4;spacingRight=4;overflow=hidden;rotatable=0;points=[[0,0.5],[1,0.5]];portConstraint=eastwest;" parent="ADWufYTODqnqWgLy_RdV-113" vertex="1">
          <mxGeometry y="335.99666666666667" width="322" height="26" as="geometry" />
        </mxCell>
        <mxCell id="ADWufYTODqnqWgLy_RdV-127" value="+ addStartDragListener(listener: Function): void" style="text;strokeColor=none;fillColor=none;align=left;verticalAlign=top;spacingLeft=4;spacingRight=4;overflow=hidden;rotatable=0;points=[[0,0.5],[1,0.5]];portConstraint=eastwest;" parent="ADWufYTODqnqWgLy_RdV-113" vertex="1">
          <mxGeometry y="361.99666666666667" width="322" height="26" as="geometry" />
        </mxCell>
        <mxCell id="ADWufYTODqnqWgLy_RdV-128" value="+ getThumbCurrentPosition(): number" style="text;strokeColor=none;fillColor=none;align=left;verticalAlign=top;spacingLeft=4;spacingRight=4;overflow=hidden;rotatable=0;points=[[0,0.5],[1,0.5]];portConstraint=eastwest;" parent="ADWufYTODqnqWgLy_RdV-113" vertex="1">
          <mxGeometry y="387.99666666666667" width="322" height="26" as="geometry" />
        </mxCell>
        <mxCell id="ADWufYTODqnqWgLy_RdV-129" value="TrackView" style="swimlane;fontStyle=1;align=center;verticalAlign=top;childLayout=stackLayout;horizontal=1;startSize=26.375;horizontalStack=0;resizeParent=1;resizeParentMax=0;resizeLast=0;collapsible=0;marginBottom=0;" parent="1" vertex="1">
          <mxGeometry x="1755" y="1430.97" width="360" height="244.375" as="geometry" />
        </mxCell>
        <mxCell id="ADWufYTODqnqWgLy_RdV-130" value="- $element: HTMLElement" style="text;strokeColor=none;fillColor=none;align=left;verticalAlign=top;spacingLeft=4;spacingRight=4;overflow=hidden;rotatable=0;points=[[0,0.5],[1,0.5]];portConstraint=eastwest;" parent="ADWufYTODqnqWgLy_RdV-129" vertex="1">
          <mxGeometry y="26.375" width="360" height="26" as="geometry" />
        </mxCell>
        <mxCell id="ADWufYTODqnqWgLy_RdV-131" value="- $track: HTMLElement" style="text;strokeColor=none;fillColor=none;align=left;verticalAlign=top;spacingLeft=4;spacingRight=4;overflow=hidden;rotatable=0;points=[[0,0.5],[1,0.5]];portConstraint=eastwest;" parent="ADWufYTODqnqWgLy_RdV-129" vertex="1">
          <mxGeometry y="52.375" width="360" height="26" as="geometry" />
        </mxCell>
        <mxCell id="ADWufYTODqnqWgLy_RdV-132" value="- ruler: Ruler" style="text;strokeColor=none;fillColor=none;align=left;verticalAlign=top;spacingLeft=4;spacingRight=4;overflow=hidden;rotatable=0;points=[[0,0.5],[1,0.5]];portConstraint=eastwest;" parent="ADWufYTODqnqWgLy_RdV-129" vertex="1">
          <mxGeometry y="78.375" width="360" height="26" as="geometry" />
        </mxCell>
        <mxCell id="ADWufYTODqnqWgLy_RdV-133" style="line;strokeWidth=1;fillColor=none;align=left;verticalAlign=middle;spacingTop=-1;spacingLeft=3;spacingRight=3;rotatable=0;labelPosition=right;points=[];portConstraint=eastwest;strokeColor=inherit;" parent="ADWufYTODqnqWgLy_RdV-129" vertex="1">
          <mxGeometry y="104.375" width="360" height="8" as="geometry" />
        </mxCell>
        <mxCell id="pQNl8kFYSYKoo_jJR8Nf-274" value="+updateOptions(id: number):void" style="text;strokeColor=none;fillColor=none;align=left;verticalAlign=top;spacingLeft=4;spacingRight=4;overflow=hidden;rotatable=0;points=[[0,0.5],[1,0.5]];portConstraint=eastwest;" parent="ADWufYTODqnqWgLy_RdV-129" vertex="1">
          <mxGeometry y="112.375" width="360" height="28" as="geometry" />
        </mxCell>
        <mxCell id="ADWufYTODqnqWgLy_RdV-134" value="+ getTrackElement(): HTMLElement" style="text;strokeColor=none;fillColor=none;align=left;verticalAlign=top;spacingLeft=4;spacingRight=4;overflow=hidden;rotatable=0;points=[[0,0.5],[1,0.5]];portConstraint=eastwest;" parent="ADWufYTODqnqWgLy_RdV-129" vertex="1">
          <mxGeometry y="140.375" width="360" height="26" as="geometry" />
        </mxCell>
        <mxCell id="ADWufYTODqnqWgLy_RdV-135" value="+ render(width: number, height: number, tickStep: number): void" style="text;strokeColor=none;fillColor=none;align=left;verticalAlign=top;spacingLeft=4;spacingRight=4;overflow=hidden;rotatable=0;points=[[0,0.5],[1,0.5]];portConstraint=eastwest;" parent="ADWufYTODqnqWgLy_RdV-129" vertex="1">
          <mxGeometry y="166.375" width="360" height="26" as="geometry" />
        </mxCell>
        <mxCell id="ADWufYTODqnqWgLy_RdV-136" value="+ addPositionChangeListener(listener: Function): void" style="text;strokeColor=none;fillColor=none;align=left;verticalAlign=top;spacingLeft=4;spacingRight=4;overflow=hidden;rotatable=0;points=[[0,0.5],[1,0.5]];portConstraint=eastwest;" parent="ADWufYTODqnqWgLy_RdV-129" vertex="1">
          <mxGeometry y="192.375" width="360" height="26" as="geometry" />
        </mxCell>
        <mxCell id="ADWufYTODqnqWgLy_RdV-137" value="+ getRuler(): Ruler" style="text;strokeColor=none;fillColor=none;align=left;verticalAlign=top;spacingLeft=4;spacingRight=4;overflow=hidden;rotatable=0;points=[[0,0.5],[1,0.5]];portConstraint=eastwest;" parent="ADWufYTODqnqWgLy_RdV-129" vertex="1">
          <mxGeometry y="218.375" width="360" height="26" as="geometry" />
        </mxCell>
        <mxCell id="ADWufYTODqnqWgLy_RdV-138" value="FillView" style="swimlane;fontStyle=1;align=center;verticalAlign=top;childLayout=stackLayout;horizontal=1;startSize=27.5;horizontalStack=0;resizeParent=1;resizeParentMax=0;resizeLast=0;collapsible=0;marginBottom=0;" parent="1" vertex="1">
          <mxGeometry x="2210" y="1430.97" width="340" height="203.5" as="geometry" />
        </mxCell>
        <mxCell id="ADWufYTODqnqWgLy_RdV-139" value="- $fill: HTMLElement" style="text;strokeColor=none;fillColor=none;align=left;verticalAlign=top;spacingLeft=4;spacingRight=4;overflow=hidden;rotatable=0;points=[[0,0.5],[1,0.5]];portConstraint=eastwest;" parent="ADWufYTODqnqWgLy_RdV-138" vertex="1">
          <mxGeometry y="27.5" width="340" height="28" as="geometry" />
        </mxCell>
        <mxCell id="ADWufYTODqnqWgLy_RdV-140" value="- $parent: HTMLElement" style="text;strokeColor=none;fillColor=none;align=left;verticalAlign=top;spacingLeft=4;spacingRight=4;overflow=hidden;rotatable=0;points=[[0,0.5],[1,0.5]];portConstraint=eastwest;" parent="ADWufYTODqnqWgLy_RdV-138" vertex="1">
          <mxGeometry y="55.5" width="340" height="28" as="geometry" />
        </mxCell>
        <mxCell id="ADWufYTODqnqWgLy_RdV-141" style="line;strokeWidth=1;fillColor=none;align=left;verticalAlign=middle;spacingTop=-1;spacingLeft=3;spacingRight=3;rotatable=0;labelPosition=right;points=[];portConstraint=eastwest;strokeColor=inherit;" parent="ADWufYTODqnqWgLy_RdV-138" vertex="1">
          <mxGeometry y="83.5" width="340" height="8" as="geometry" />
        </mxCell>
        <mxCell id="pQNl8kFYSYKoo_jJR8Nf-276" value="+updateOptions(id: number):void" style="text;strokeColor=none;fillColor=none;align=left;verticalAlign=top;spacingLeft=4;spacingRight=4;overflow=hidden;rotatable=0;points=[[0,0.5],[1,0.5]];portConstraint=eastwest;" parent="ADWufYTODqnqWgLy_RdV-138" vertex="1">
          <mxGeometry y="91.5" width="340" height="28" as="geometry" />
        </mxCell>
        <mxCell id="ADWufYTODqnqWgLy_RdV-142" value="+ render(position: number | number[], width: number): void" style="text;strokeColor=none;fillColor=none;align=left;verticalAlign=top;spacingLeft=4;spacingRight=4;overflow=hidden;rotatable=0;points=[[0,0.5],[1,0.5]];portConstraint=eastwest;" parent="ADWufYTODqnqWgLy_RdV-138" vertex="1">
          <mxGeometry y="119.5" width="340" height="28" as="geometry" />
        </mxCell>
        <mxCell id="ADWufYTODqnqWgLy_RdV-143" value="+ applyFillAnimatingStyle(fill: HTMLElement): void" style="text;strokeColor=none;fillColor=none;align=left;verticalAlign=top;spacingLeft=4;spacingRight=4;overflow=hidden;rotatable=0;points=[[0,0.5],[1,0.5]];portConstraint=eastwest;" parent="ADWufYTODqnqWgLy_RdV-138" vertex="1">
          <mxGeometry y="147.5" width="340" height="28" as="geometry" />
        </mxCell>
        <mxCell id="ADWufYTODqnqWgLy_RdV-144" value="+ getFillElement(): HTMLElement" style="text;strokeColor=none;fillColor=none;align=left;verticalAlign=top;spacingLeft=4;spacingRight=4;overflow=hidden;rotatable=0;points=[[0,0.5],[1,0.5]];portConstraint=eastwest;" parent="ADWufYTODqnqWgLy_RdV-138" vertex="1">
          <mxGeometry y="175.5" width="340" height="28" as="geometry" />
        </mxCell>
        <mxCell id="ADWufYTODqnqWgLy_RdV-145" value="RangeSliderView" style="swimlane;fontStyle=1;align=center;verticalAlign=top;childLayout=stackLayout;horizontal=1;startSize=24.42105263157895;horizontalStack=0;resizeParent=1;resizeParentMax=0;resizeLast=0;collapsible=0;marginBottom=0;" parent="1" vertex="1">
          <mxGeometry x="1400" y="1430.97" width="290" height="492.42105263157896" as="geometry" />
        </mxCell>
        <mxCell id="ADWufYTODqnqWgLy_RdV-146" value="- $container: HTMLElement" style="text;strokeColor=none;fillColor=none;align=left;verticalAlign=top;spacingLeft=4;spacingRight=4;overflow=hidden;rotatable=0;points=[[0,0.5],[1,0.5]];portConstraint=eastwest;" parent="ADWufYTODqnqWgLy_RdV-145" vertex="1">
          <mxGeometry y="24.42105263157895" width="290" height="24" as="geometry" />
        </mxCell>
        <mxCell id="ADWufYTODqnqWgLy_RdV-147" value="- $pluginElement: HTMLElement" style="text;strokeColor=none;fillColor=none;align=left;verticalAlign=top;spacingLeft=4;spacingRight=4;overflow=hidden;rotatable=0;points=[[0,0.5],[1,0.5]];portConstraint=eastwest;" parent="ADWufYTODqnqWgLy_RdV-145" vertex="1">
          <mxGeometry y="48.421052631578945" width="290" height="24" as="geometry" />
        </mxCell>
        <mxCell id="ADWufYTODqnqWgLy_RdV-148" value="- $trackView: TrackView" style="text;strokeColor=none;fillColor=none;align=left;verticalAlign=top;spacingLeft=4;spacingRight=4;overflow=hidden;rotatable=0;points=[[0,0.5],[1,0.5]];portConstraint=eastwest;" parent="ADWufYTODqnqWgLy_RdV-145" vertex="1">
          <mxGeometry y="72.42105263157895" width="290" height="24" as="geometry" />
        </mxCell>
        <mxCell id="ADWufYTODqnqWgLy_RdV-149" value="- $label: HTMLElement" style="text;strokeColor=none;fillColor=none;align=left;verticalAlign=top;spacingLeft=4;spacingRight=4;overflow=hidden;rotatable=0;points=[[0,0.5],[1,0.5]];portConstraint=eastwest;" parent="ADWufYTODqnqWgLy_RdV-145" vertex="1">
          <mxGeometry y="96.42105263157895" width="290" height="24" as="geometry" />
        </mxCell>
        <mxCell id="ADWufYTODqnqWgLy_RdV-150" value="- $title: HTMLElement" style="text;strokeColor=none;fillColor=none;align=left;verticalAlign=top;spacingLeft=4;spacingRight=4;overflow=hidden;rotatable=0;points=[[0,0.5],[1,0.5]];portConstraint=eastwest;" parent="ADWufYTODqnqWgLy_RdV-145" vertex="1">
          <mxGeometry y="120.42105263157895" width="290" height="24" as="geometry" />
        </mxCell>
        <mxCell id="ADWufYTODqnqWgLy_RdV-151" value="- $thumbView: ThumbView | ThumbView[]" style="text;strokeColor=none;fillColor=none;align=left;verticalAlign=top;spacingLeft=4;spacingRight=4;overflow=hidden;rotatable=0;points=[[0,0.5],[1,0.5]];portConstraint=eastwest;" parent="ADWufYTODqnqWgLy_RdV-145" vertex="1">
          <mxGeometry y="144.42105263157896" width="290" height="24" as="geometry" />
        </mxCell>
        <mxCell id="ADWufYTODqnqWgLy_RdV-152" value="- $trackElement: HTMLElement" style="text;strokeColor=none;fillColor=none;align=left;verticalAlign=top;spacingLeft=4;spacingRight=4;overflow=hidden;rotatable=0;points=[[0,0.5],[1,0.5]];portConstraint=eastwest;" parent="ADWufYTODqnqWgLy_RdV-145" vertex="1">
          <mxGeometry y="168.42105263157896" width="290" height="24" as="geometry" />
        </mxCell>
        <mxCell id="ADWufYTODqnqWgLy_RdV-153" value="- $fillView: FillView" style="text;strokeColor=none;fillColor=none;align=left;verticalAlign=top;spacingLeft=4;spacingRight=4;overflow=hidden;rotatable=0;points=[[0,0.5],[1,0.5]];portConstraint=eastwest;" parent="ADWufYTODqnqWgLy_RdV-145" vertex="1">
          <mxGeometry y="192.42105263157896" width="290" height="24" as="geometry" />
        </mxCell>
        <mxCell id="ADWufYTODqnqWgLy_RdV-154" style="line;strokeWidth=1;fillColor=none;align=left;verticalAlign=middle;spacingTop=-1;spacingLeft=3;spacingRight=3;rotatable=0;labelPosition=right;points=[];portConstraint=eastwest;strokeColor=inherit;" parent="ADWufYTODqnqWgLy_RdV-145" vertex="1">
          <mxGeometry y="216.42105263157896" width="290" height="8" as="geometry" />
        </mxCell>
        <mxCell id="pQNl8kFYSYKoo_jJR8Nf-275" value="+updateOptions(id: number):void" style="text;strokeColor=none;fillColor=none;align=left;verticalAlign=top;spacingLeft=4;spacingRight=4;overflow=hidden;rotatable=0;points=[[0,0.5],[1,0.5]];portConstraint=eastwest;" parent="ADWufYTODqnqWgLy_RdV-145" vertex="1">
          <mxGeometry y="224.42105263157896" width="290" height="28" as="geometry" />
        </mxCell>
        <mxCell id="ADWufYTODqnqWgLy_RdV-155" value="+ getThumbViews(): ThumbView | ThumbView[]" style="text;strokeColor=none;fillColor=none;align=left;verticalAlign=top;spacingLeft=4;spacingRight=4;overflow=hidden;rotatable=0;points=[[0,0.5],[1,0.5]];portConstraint=eastwest;" parent="ADWufYTODqnqWgLy_RdV-145" vertex="1">
          <mxGeometry y="252.42105263157896" width="290" height="24" as="geometry" />
        </mxCell>
        <mxCell id="ADWufYTODqnqWgLy_RdV-156" value="+ renderLabel(): void" style="text;strokeColor=none;fillColor=none;align=left;verticalAlign=top;spacingLeft=4;spacingRight=4;overflow=hidden;rotatable=0;points=[[0,0.5],[1,0.5]];portConstraint=eastwest;" parent="ADWufYTODqnqWgLy_RdV-145" vertex="1">
          <mxGeometry y="276.42105263157896" width="290" height="24" as="geometry" />
        </mxCell>
        <mxCell id="ADWufYTODqnqWgLy_RdV-157" value="+ applyLabelStyles(labelStyles: LabelStyles): void" style="text;strokeColor=none;fillColor=none;align=left;verticalAlign=top;spacingLeft=4;spacingRight=4;overflow=hidden;rotatable=0;points=[[0,0.5],[1,0.5]];portConstraint=eastwest;" parent="ADWufYTODqnqWgLy_RdV-145" vertex="1">
          <mxGeometry y="300.42105263157896" width="290" height="24" as="geometry" />
        </mxCell>
        <mxCell id="ADWufYTODqnqWgLy_RdV-158" value="+ render(): void" style="text;strokeColor=none;fillColor=none;align=left;verticalAlign=top;spacingLeft=4;spacingRight=4;overflow=hidden;rotatable=0;points=[[0,0.5],[1,0.5]];portConstraint=eastwest;" parent="ADWufYTODqnqWgLy_RdV-145" vertex="1">
          <mxGeometry y="324.42105263157896" width="290" height="24" as="geometry" />
        </mxCell>
        <mxCell id="ADWufYTODqnqWgLy_RdV-159" value="+ renderThumbView(): void" style="text;strokeColor=none;fillColor=none;align=left;verticalAlign=top;spacingLeft=4;spacingRight=4;overflow=hidden;rotatable=0;points=[[0,0.5],[1,0.5]];portConstraint=eastwest;" parent="ADWufYTODqnqWgLy_RdV-145" vertex="1">
          <mxGeometry y="348.42105263157896" width="290" height="24" as="geometry" />
        </mxCell>
        <mxCell id="ADWufYTODqnqWgLy_RdV-160" value="+ getTrackView(): TrackView" style="text;strokeColor=none;fillColor=none;align=left;verticalAlign=top;spacingLeft=4;spacingRight=4;overflow=hidden;rotatable=0;points=[[0,0.5],[1,0.5]];portConstraint=eastwest;" parent="ADWufYTODqnqWgLy_RdV-145" vertex="1">
          <mxGeometry y="372.42105263157896" width="290" height="24" as="geometry" />
        </mxCell>
        <mxCell id="ADWufYTODqnqWgLy_RdV-161" value="+ getThumbView(): ThumbView | ThumbView[]" style="text;strokeColor=none;fillColor=none;align=left;verticalAlign=top;spacingLeft=4;spacingRight=4;overflow=hidden;rotatable=0;points=[[0,0.5],[1,0.5]];portConstraint=eastwest;" parent="ADWufYTODqnqWgLy_RdV-145" vertex="1">
          <mxGeometry y="396.42105263157896" width="290" height="24" as="geometry" />
        </mxCell>
        <mxCell id="ADWufYTODqnqWgLy_RdV-162" value="+ getFillView(): FillView" style="text;strokeColor=none;fillColor=none;align=left;verticalAlign=top;spacingLeft=4;spacingRight=4;overflow=hidden;rotatable=0;points=[[0,0.5],[1,0.5]];portConstraint=eastwest;" parent="ADWufYTODqnqWgLy_RdV-145" vertex="1">
          <mxGeometry y="420.42105263157896" width="290" height="24" as="geometry" />
        </mxCell>
        <mxCell id="ADWufYTODqnqWgLy_RdV-163" value="+ addValueChangeListener(listener: Function): void" style="text;strokeColor=none;fillColor=none;align=left;verticalAlign=top;spacingLeft=4;spacingRight=4;overflow=hidden;rotatable=0;points=[[0,0.5],[1,0.5]];portConstraint=eastwest;" parent="ADWufYTODqnqWgLy_RdV-145" vertex="1">
          <mxGeometry y="444.42105263157896" width="290" height="24" as="geometry" />
        </mxCell>
        <mxCell id="ADWufYTODqnqWgLy_RdV-164" value="+ getContainerWidth(): number" style="text;strokeColor=none;fillColor=none;align=left;verticalAlign=top;spacingLeft=4;spacingRight=4;overflow=hidden;rotatable=0;points=[[0,0.5],[1,0.5]];portConstraint=eastwest;" parent="ADWufYTODqnqWgLy_RdV-145" vertex="1">
          <mxGeometry y="468.42105263157896" width="290" height="24" as="geometry" />
        </mxCell>
        <mxCell id="ADWufYTODqnqWgLy_RdV-169" value="1" style="endArrow=open;html=1;endSize=12;startArrow=diamondThin;startSize=14;startFill=1;edgeStyle=orthogonalEdgeStyle;align=left;verticalAlign=bottom;rounded=0;entryX=0.499;entryY=1.02;entryDx=0;entryDy=0;exitX=0.5;exitY=0;exitDx=0;exitDy=0;entryPerimeter=0;" parent="1" source="ADWufYTODqnqWgLy_RdV-48" target="ADWufYTODqnqWgLy_RdV-137" edge="1">
          <mxGeometry x="-0.5399" y="-6" relative="1" as="geometry">
            <mxPoint x="1995" y="1461.72" as="sourcePoint" />
            <mxPoint x="2091" y="1771.72" as="targetPoint" />
            <mxPoint as="offset" />
          </mxGeometry>
        </mxCell>
        <mxCell id="ADWufYTODqnqWgLy_RdV-24" value="ThumbModel" style="swimlane;fontStyle=1;align=center;verticalAlign=top;childLayout=stackLayout;horizontal=1;startSize=26.857142857142858;horizontalStack=0;resizeParent=1;resizeParentMax=0;resizeLast=0;collapsible=0;marginBottom=0;" parent="1" vertex="1">
          <mxGeometry x="890" y="492" width="358" height="278.8571428571429" as="geometry" />
        </mxCell>
        <mxCell id="ADWufYTODqnqWgLy_RdV-25" value="- value: number | number[]" style="text;strokeColor=none;fillColor=none;align=left;verticalAlign=top;spacingLeft=4;spacingRight=4;overflow=hidden;rotatable=0;points=[[0,0.5],[1,0.5]];portConstraint=eastwest;" parent="ADWufYTODqnqWgLy_RdV-24" vertex="1">
          <mxGeometry y="26.857142857142858" width="358" height="27" as="geometry" />
        </mxCell>
        <mxCell id="ADWufYTODqnqWgLy_RdV-26" style="line;strokeWidth=1;fillColor=none;align=left;verticalAlign=middle;spacingTop=-1;spacingLeft=3;spacingRight=3;rotatable=0;labelPosition=right;points=[];portConstraint=eastwest;strokeColor=inherit;" parent="ADWufYTODqnqWgLy_RdV-24" vertex="1">
          <mxGeometry y="53.85714285714286" width="358" height="8" as="geometry" />
        </mxCell>
        <mxCell id="pQNl8kFYSYKoo_jJR8Nf-267" value="+updateOptions(id: number):void" style="text;strokeColor=none;fillColor=none;align=left;verticalAlign=top;spacingLeft=4;spacingRight=4;overflow=hidden;rotatable=0;points=[[0,0.5],[1,0.5]];portConstraint=eastwest;" parent="ADWufYTODqnqWgLy_RdV-24" vertex="1">
          <mxGeometry y="61.85714285714286" width="358" height="28" as="geometry" />
        </mxCell>
        <mxCell id="ADWufYTODqnqWgLy_RdV-27" value="+ updateValue(value: number | number[]): void" style="text;strokeColor=none;fillColor=none;align=left;verticalAlign=top;spacingLeft=4;spacingRight=4;overflow=hidden;rotatable=0;points=[[0,0.5],[1,0.5]];portConstraint=eastwest;" parent="ADWufYTODqnqWgLy_RdV-24" vertex="1">
          <mxGeometry y="89.85714285714286" width="358" height="27" as="geometry" />
        </mxCell>
        <mxCell id="ADWufYTODqnqWgLy_RdV-28" value="+ getValue(): number | number[]" style="text;strokeColor=none;fillColor=none;align=left;verticalAlign=top;spacingLeft=4;spacingRight=4;overflow=hidden;rotatable=0;points=[[0,0.5],[1,0.5]];portConstraint=eastwest;" parent="ADWufYTODqnqWgLy_RdV-24" vertex="1">
          <mxGeometry y="116.85714285714286" width="358" height="27" as="geometry" />
        </mxCell>
        <mxCell id="ADWufYTODqnqWgLy_RdV-29" value="+ setValue(value: number):void" style="text;strokeColor=none;fillColor=none;align=left;verticalAlign=top;spacingLeft=4;spacingRight=4;overflow=hidden;rotatable=0;points=[[0,0.5],[1,0.5]];portConstraint=eastwest;" parent="ADWufYTODqnqWgLy_RdV-24" vertex="1">
          <mxGeometry y="143.85714285714286" width="358" height="27" as="geometry" />
        </mxCell>
        <mxCell id="ADWufYTODqnqWgLy_RdV-31" value="+ getPosition(): number | number[]" style="text;strokeColor=none;fillColor=none;align=left;verticalAlign=top;spacingLeft=4;spacingRight=4;overflow=hidden;rotatable=0;points=[[0,0.5],[1,0.5]];portConstraint=eastwest;" parent="ADWufYTODqnqWgLy_RdV-24" vertex="1">
          <mxGeometry y="170.85714285714286" width="358" height="27" as="geometry" />
        </mxCell>
        <mxCell id="ADWufYTODqnqWgLy_RdV-30" value="+ setPosition(pos: number):void" style="text;strokeColor=none;fillColor=none;align=left;verticalAlign=top;spacingLeft=4;spacingRight=4;overflow=hidden;rotatable=0;points=[[0,0.5],[1,0.5]];portConstraint=eastwest;" parent="ADWufYTODqnqWgLy_RdV-24" vertex="1">
          <mxGeometry y="197.85714285714286" width="358" height="27" as="geometry" />
        </mxCell>
        <mxCell id="pQNl8kFYSYKoo_jJR8Nf-200" value="+ addObserver(observer: IObserver): void" style="text;strokeColor=none;fillColor=none;align=left;verticalAlign=top;spacingLeft=4;spacingRight=4;overflow=hidden;rotatable=0;points=[[0,0.5],[1,0.5]];portConstraint=eastwest;" parent="ADWufYTODqnqWgLy_RdV-24" vertex="1">
          <mxGeometry y="224.85714285714286" width="358" height="27" as="geometry" />
        </mxCell>
        <mxCell id="pQNl8kFYSYKoo_jJR8Nf-201" value="- notifyObservers(): void" style="text;strokeColor=none;fillColor=none;align=left;verticalAlign=top;spacingLeft=4;spacingRight=4;overflow=hidden;rotatable=0;points=[[0,0.5],[1,0.5]];portConstraint=eastwest;" parent="ADWufYTODqnqWgLy_RdV-24" vertex="1">
          <mxGeometry y="251.85714285714286" width="358" height="27" as="geometry" />
        </mxCell>
        <mxCell id="lGM80EOGGqHn_JU-khng-10" value="notifies track click" style="endArrow=open;endSize=12;dashed=1;html=1;rounded=0;exitX=0;exitY=0.5;exitDx=0;exitDy=0;edgeStyle=orthogonalEdgeStyle;" parent="1" source="ADWufYTODqnqWgLy_RdV-111" edge="1">
          <mxGeometry x="-0.4083" width="160" relative="1" as="geometry">
            <mxPoint x="1659.9959999999999" y="422.78600000000006" as="sourcePoint" />
            <mxPoint x="1250" y="1007" as="targetPoint" />
            <Array as="points">
              <mxPoint x="1300" y="403" />
              <mxPoint x="1300" y="1007" />
            </Array>
            <mxPoint as="offset" />
          </mxGeometry>
        </mxCell>
        <mxCell id="lGM80EOGGqHn_JU-khng-12" value="&lt;font style=&quot;font-size: 12px;&quot;&gt;gets data&lt;/font&gt;" style="endArrow=open;endSize=12;dashed=1;html=1;rounded=0;edgeStyle=orthogonalEdgeStyle;" parent="1" edge="1">
          <mxGeometry x="0.1369" width="160" relative="1" as="geometry">
            <mxPoint x="1090.1599999999999" y="927" as="sourcePoint" />
            <mxPoint x="1090" y="770" as="targetPoint" />
            <Array as="points" />
            <mxPoint as="offset" />
          </mxGeometry>
        </mxCell>
        <mxCell id="lGM80EOGGqHn_JU-khng-17" value="renders" style="endArrow=open;endSize=12;dashed=1;html=1;rounded=0;edgeStyle=orthogonalEdgeStyle;exitX=0.39;exitY=0.994;exitDx=0;exitDy=0;exitPerimeter=0;" parent="1" source="ADWufYTODqnqWgLy_RdV-93" edge="1">
          <mxGeometry width="160" relative="1" as="geometry">
            <mxPoint x="2038.44" y="1169" as="sourcePoint" />
            <mxPoint x="1901" y="1431" as="targetPoint" />
            <Array as="points">
              <mxPoint x="1901" y="1431" />
            </Array>
          </mxGeometry>
        </mxCell>
        <mxCell id="lGM80EOGGqHn_JU-khng-18" value="renders" style="endArrow=open;endSize=12;dashed=1;html=1;rounded=0;edgeStyle=orthogonalEdgeStyle;exitX=0.542;exitY=1.004;exitDx=0;exitDy=0;exitPerimeter=0;entryX=0.469;entryY=0.005;entryDx=0;entryDy=0;entryPerimeter=0;" parent="1" source="ADWufYTODqnqWgLy_RdV-65" target="ADWufYTODqnqWgLy_RdV-145" edge="1">
          <mxGeometry width="160" relative="1" as="geometry">
            <mxPoint x="1592" y="1320" as="sourcePoint" />
            <mxPoint x="1568" y="1420" as="targetPoint" />
            <Array as="points" />
          </mxGeometry>
        </mxCell>
        <mxCell id="lGM80EOGGqHn_JU-khng-19" value="renders" style="endArrow=open;endSize=12;dashed=1;html=1;rounded=0;edgeStyle=orthogonalEdgeStyle;exitX=0.386;exitY=1.064;exitDx=0;exitDy=0;exitPerimeter=0;" parent="1" source="ADWufYTODqnqWgLy_RdV-102" edge="1">
          <mxGeometry width="160" relative="1" as="geometry">
            <mxPoint x="2450" y="1136.38" as="sourcePoint" />
            <mxPoint x="2340" y="1430" as="targetPoint" />
            <Array as="points">
              <mxPoint x="2340" y="1166" />
            </Array>
          </mxGeometry>
        </mxCell>
        <mxCell id="lGM80EOGGqHn_JU-khng-21" value="gets start point" style="endArrow=open;endSize=12;dashed=1;html=1;rounded=0;edgeStyle=orthogonalEdgeStyle;exitX=0.997;exitY=0.089;exitDx=0;exitDy=0;exitPerimeter=0;entryX=1.009;entryY=0.061;entryDx=0;entryDy=0;entryPerimeter=0;" parent="1" source="ADWufYTODqnqWgLy_RdV-112" edge="1" target="ADWufYTODqnqWgLy_RdV-87">
          <mxGeometry x="-0.7272" y="2" width="160" relative="1" as="geometry">
            <mxPoint x="1992" y="400.5" as="sourcePoint" />
            <mxPoint x="2232" y="1000" as="targetPoint" />
            <Array as="points">
              <mxPoint x="1992" y="418" />
              <mxPoint x="1992" y="420" />
              <mxPoint x="2130" y="420" />
              <mxPoint x="2130" y="1000" />
            </Array>
            <mxPoint as="offset" />
          </mxGeometry>
        </mxCell>
        <mxCell id="lGM80EOGGqHn_JU-khng-22" value="notifies thumb position change" style="endArrow=open;endSize=12;dashed=1;html=1;rounded=0;edgeStyle=orthogonalEdgeStyle;entryX=0.999;entryY=-0.157;entryDx=0;entryDy=0;entryPerimeter=0;exitX=1.001;exitY=0.032;exitDx=0;exitDy=0;exitPerimeter=0;" parent="1" source="ADWufYTODqnqWgLy_RdV-111" target="ADWufYTODqnqWgLy_RdV-97" edge="1">
          <mxGeometry x="-0.4831" width="160" relative="1" as="geometry">
            <mxPoint x="2270" y="420" as="sourcePoint" />
            <mxPoint x="2272.94" y="584.18" as="targetPoint" />
            <Array as="points">
              <mxPoint x="2580" y="391" />
              <mxPoint x="2580" y="994" />
            </Array>
            <mxPoint as="offset" />
          </mxGeometry>
        </mxCell>
        <mxCell id="lGM80EOGGqHn_JU-khng-23" value="notifies thumb positon" style="endArrow=open;endSize=12;dashed=1;html=1;rounded=0;edgeStyle=orthogonalEdgeStyle;exitX=0.994;exitY=0.532;exitDx=0;exitDy=0;exitPerimeter=0;jumpStyle=sharp;startArrow=none;startFill=0;jumpSize=28;" parent="1" source="ADWufYTODqnqWgLy_RdV-70" edge="1">
          <mxGeometry x="0.4891" width="160" relative="1" as="geometry">
            <mxPoint x="1629" y="800" as="sourcePoint" />
            <mxPoint x="1658" y="440" as="targetPoint" />
            <Array as="points">
              <mxPoint x="1330" y="1040" />
              <mxPoint x="1330" y="440" />
            </Array>
            <mxPoint as="offset" />
          </mxGeometry>
        </mxCell>
        <mxCell id="qulfv3zckrtIXR-0wow6-4" value="" style="endArrow=block;dashed=1;endFill=0;endSize=12;html=1;rounded=0;edgeStyle=orthogonalEdgeStyle;exitX=0;exitY=0.5;exitDx=0;exitDy=0;" parent="1" source="ADWufYTODqnqWgLy_RdV-77" target="ADWufYTODqnqWgLy_RdV-53" edge="1">
          <mxGeometry width="160" relative="1" as="geometry">
            <mxPoint x="870" y="1120" as="sourcePoint" />
            <mxPoint x="870" y="261" as="targetPoint" />
            <Array as="points">
              <mxPoint x="890" y="1180" />
              <mxPoint x="830" y="1180" />
              <mxPoint x="830" y="261" />
            </Array>
          </mxGeometry>
        </mxCell>
        <mxCell id="qulfv3zckrtIXR-0wow6-12" value="implements" style="edgeLabel;html=1;align=center;verticalAlign=middle;resizable=0;points=[];fontSize=12;" parent="qulfv3zckrtIXR-0wow6-4" vertex="1" connectable="0">
          <mxGeometry x="0.5919" y="-1" relative="1" as="geometry">
            <mxPoint x="-4" y="-100" as="offset" />
          </mxGeometry>
        </mxCell>
        <mxCell id="lGM80EOGGqHn_JU-khng-16" value="renders" style="endArrow=open;endSize=12;dashed=1;html=1;rounded=0;edgeStyle=orthogonalEdgeStyle;exitX=0.47;exitY=1.006;exitDx=0;exitDy=0;exitPerimeter=0;entryX=0.528;entryY=0.003;entryDx=0;entryDy=0;entryPerimeter=0;" parent="1" source="pQNl8kFYSYKoo_jJR8Nf-256" target="ADWufYTODqnqWgLy_RdV-113" edge="1">
          <mxGeometry x="-0.1638" y="1" width="160" relative="1" as="geometry">
            <mxPoint x="1060" y="1430" as="sourcePoint" />
            <mxPoint x="1061" y="1490" as="targetPoint" />
            <Array as="points" />
            <mxPoint as="offset" />
          </mxGeometry>
        </mxCell>
        <mxCell id="qulfv3zckrtIXR-0wow6-15" value="" style="endArrow=open;endSize=12;dashed=1;html=1;rounded=0;edgeStyle=orthogonalEdgeStyle;exitX=0.006;exitY=0.087;exitDx=0;exitDy=0;exitPerimeter=0;entryX=0.19;entryY=0.001;entryDx=0;entryDy=0;entryPerimeter=0;" parent="1" source="ADWufYTODqnqWgLy_RdV-12" edge="1" target="ADWufYTODqnqWgLy_RdV-66">
          <mxGeometry x="0.1813" width="160" relative="1" as="geometry">
            <mxPoint x="880" y="238" as="sourcePoint" />
            <mxPoint x="960" y="850" as="targetPoint" />
            <Array as="points">
              <mxPoint x="870" y="370" />
              <mxPoint x="870" y="850" />
              <mxPoint x="958" y="850" />
            </Array>
            <mxPoint as="offset" />
          </mxGeometry>
        </mxCell>
        <mxCell id="qulfv3zckrtIXR-0wow6-16" value="dispatches &lt;br&gt;thumb-change event" style="edgeLabel;html=1;align=center;verticalAlign=middle;resizable=0;points=[];fontSize=12;" parent="qulfv3zckrtIXR-0wow6-15" vertex="1" connectable="0">
          <mxGeometry x="0.2426" y="-1" relative="1" as="geometry">
            <mxPoint x="61" y="71" as="offset" />
          </mxGeometry>
        </mxCell>
        <mxCell id="qulfv3zckrtIXR-0wow6-30" value="Extends" style="endArrow=block;endSize=16;endFill=0;html=1;rounded=0;edgeStyle=orthogonalEdgeStyle;exitX=0.553;exitY=0.002;exitDx=0;exitDy=0;exitPerimeter=0;" parent="1" source="qulfv3zckrtIXR-0wow6-51" edge="1">
          <mxGeometry x="0.0442" width="160" relative="1" as="geometry">
            <mxPoint x="2099.42" y="-184" as="sourcePoint" />
            <mxPoint x="1799.42" y="-472" as="targetPoint" />
            <Array as="points" />
            <mxPoint as="offset" />
          </mxGeometry>
        </mxCell>
        <mxCell id="qulfv3zckrtIXR-0wow6-48" value="JQueryStatic" style="swimlane;fontStyle=1;align=center;verticalAlign=top;childLayout=stackLayout;horizontal=1;startSize=29.2;horizontalStack=0;resizeParent=1;resizeParentMax=0;resizeLast=0;collapsible=0;marginBottom=0;" parent="1" vertex="1">
          <mxGeometry x="1540" y="-545" width="480" height="73.2" as="geometry" />
        </mxCell>
        <mxCell id="qulfv3zckrtIXR-0wow6-49" value="readonly fn: JQuery&lt;HTMLElement&gt;" style="text;strokeColor=none;fillColor=none;align=left;verticalAlign=top;spacingLeft=4;spacingRight=4;overflow=hidden;rotatable=0;points=[[0,0.5],[1,0.5]];portConstraint=eastwest;" parent="qulfv3zckrtIXR-0wow6-48" vertex="1">
          <mxGeometry y="29.2" width="480" height="29" as="geometry" />
        </mxCell>
        <mxCell id="qulfv3zckrtIXR-0wow6-50" style="line;strokeWidth=1;fillColor=none;align=left;verticalAlign=middle;spacingTop=-1;spacingLeft=3;spacingRight=3;rotatable=0;labelPosition=right;points=[];portConstraint=eastwest;strokeColor=inherit;" parent="qulfv3zckrtIXR-0wow6-48" vertex="1">
          <mxGeometry y="58.2" width="480" height="15" as="geometry" />
        </mxCell>
        <mxCell id="qulfv3zckrtIXR-0wow6-51" value="&lt;&lt;Function&gt;&gt;&#xa;RangeSlider" style="swimlane;fontStyle=1;align=center;verticalAlign=top;childLayout=stackLayout;horizontal=1;startSize=38.77777777777778;horizontalStack=0;resizeParent=1;resizeParentMax=0;resizeLast=0;collapsible=0;marginBottom=0;" parent="1" vertex="1">
          <mxGeometry x="1525.42" y="-333.78" width="494" height="332.77777777777777" as="geometry" />
        </mxCell>
        <mxCell id="qulfv3zckrtIXR-0wow6-52" value="-config: IConfig;" style="text;strokeColor=none;fillColor=none;align=left;verticalAlign=top;spacingLeft=4;spacingRight=4;overflow=hidden;rotatable=0;points=[[0,0.5],[1,0.5]];portConstraint=eastwest;" parent="qulfv3zckrtIXR-0wow6-51" vertex="1">
          <mxGeometry y="38.77777777777778" width="494" height="26" as="geometry" />
        </mxCell>
        <mxCell id="qulfv3zckrtIXR-0wow6-53" value="-id: number;" style="text;strokeColor=none;fillColor=none;align=left;verticalAlign=top;spacingLeft=4;spacingRight=4;overflow=hidden;rotatable=0;points=[[0,0.5],[1,0.5]];portConstraint=eastwest;" parent="qulfv3zckrtIXR-0wow6-51" vertex="1">
          <mxGeometry y="64.77777777777777" width="494" height="26" as="geometry" />
        </mxCell>
        <mxCell id="qulfv3zckrtIXR-0wow6-54" style="line;strokeWidth=1;fillColor=none;align=left;verticalAlign=middle;spacingTop=-1;spacingLeft=3;spacingRight=3;rotatable=0;labelPosition=right;points=[];portConstraint=eastwest;strokeColor=inherit;" parent="qulfv3zckrtIXR-0wow6-51" vertex="1">
          <mxGeometry y="90.77777777777777" width="494" height="8" as="geometry" />
        </mxCell>
        <mxCell id="qulfv3zckrtIXR-0wow6-55" value="+ rangeSlider(this: JQuery&lt;HTMLElement&gt;, opts?: IOptions): JQuery&lt;HTMLElement&gt;" style="text;strokeColor=none;fillColor=none;align=left;verticalAlign=top;spacingLeft=4;spacingRight=4;overflow=hidden;rotatable=0;points=[[0,0.5],[1,0.5]];portConstraint=eastwest;" parent="qulfv3zckrtIXR-0wow6-51" vertex="1">
          <mxGeometry y="98.77777777777777" width="494" height="26" as="geometry" />
        </mxCell>
        <mxCell id="qulfv3zckrtIXR-0wow6-57" value="+setValue(value: number | number[]): JQuery" style="text;strokeColor=none;fillColor=none;align=left;verticalAlign=top;spacingLeft=4;spacingRight=4;overflow=hidden;rotatable=0;points=[[0,0.5],[1,0.5]];portConstraint=eastwest;" parent="qulfv3zckrtIXR-0wow6-51" vertex="1">
          <mxGeometry y="124.77777777777777" width="494" height="26" as="geometry" />
        </mxCell>
        <mxCell id="qulfv3zckrtIXR-0wow6-58" value="+getValue(): number | number[]" style="text;strokeColor=none;fillColor=none;align=left;verticalAlign=top;spacingLeft=4;spacingRight=4;overflow=hidden;rotatable=0;points=[[0,0.5],[1,0.5]];portConstraint=eastwest;" parent="qulfv3zckrtIXR-0wow6-51" vertex="1">
          <mxGeometry y="150.77777777777777" width="494" height="26" as="geometry" />
        </mxCell>
        <mxCell id="qulfv3zckrtIXR-0wow6-59" value="+updateOptions(opts?: IOpts): JQuery" style="text;strokeColor=none;fillColor=none;align=left;verticalAlign=top;spacingLeft=4;spacingRight=4;overflow=hidden;rotatable=0;points=[[0,0.5],[1,0.5]];portConstraint=eastwest;" parent="qulfv3zckrtIXR-0wow6-51" vertex="1">
          <mxGeometry y="176.77777777777777" width="494" height="26" as="geometry" />
        </mxCell>
        <mxCell id="qulfv3zckrtIXR-0wow6-60" value="+onChange(userHandler: Function): void" style="text;strokeColor=none;fillColor=none;align=left;verticalAlign=top;spacingLeft=4;spacingRight=4;overflow=hidden;rotatable=0;points=[[0,0.5],[1,0.5]];portConstraint=eastwest;" parent="qulfv3zckrtIXR-0wow6-51" vertex="1">
          <mxGeometry y="202.77777777777777" width="494" height="26" as="geometry" />
        </mxCell>
        <mxCell id="qulfv3zckrtIXR-0wow6-61" value="+getOptions(): IOpts" style="text;strokeColor=none;fillColor=none;align=left;verticalAlign=top;spacingLeft=4;spacingRight=4;overflow=hidden;rotatable=0;points=[[0,0.5],[1,0.5]];portConstraint=eastwest;" parent="qulfv3zckrtIXR-0wow6-51" vertex="1">
          <mxGeometry y="228.77777777777777" width="494" height="26" as="geometry" />
        </mxCell>
        <mxCell id="qulfv3zckrtIXR-0wow6-62" value="+getContainer(): HTMLElement" style="text;strokeColor=none;fillColor=none;align=left;verticalAlign=top;spacingLeft=4;spacingRight=4;overflow=hidden;rotatable=0;points=[[0,0.5],[1,0.5]];portConstraint=eastwest;" parent="qulfv3zckrtIXR-0wow6-51" vertex="1">
          <mxGeometry y="254.77777777777777" width="494" height="26" as="geometry" />
        </mxCell>
        <mxCell id="qulfv3zckrtIXR-0wow6-63" value="+getPluginConfig(): Object" style="text;strokeColor=none;fillColor=none;align=left;verticalAlign=top;spacingLeft=4;spacingRight=4;overflow=hidden;rotatable=0;points=[[0,0.5],[1,0.5]];portConstraint=eastwest;" parent="qulfv3zckrtIXR-0wow6-51" vertex="1">
          <mxGeometry y="280.77777777777777" width="494" height="26" as="geometry" />
        </mxCell>
        <mxCell id="qulfv3zckrtIXR-0wow6-64" value="+getContainerId(): number" style="text;strokeColor=none;fillColor=none;align=left;verticalAlign=top;spacingLeft=4;spacingRight=4;overflow=hidden;rotatable=0;points=[[0,0.5],[1,0.5]];portConstraint=eastwest;" parent="qulfv3zckrtIXR-0wow6-51" vertex="1">
          <mxGeometry y="306.77777777777777" width="494" height="26" as="geometry" />
        </mxCell>
        <mxCell id="pQNl8kFYSYKoo_jJR8Nf-16" value="&lt;font style=&quot;font-size: 16px;&quot;&gt;&lt;b&gt;Initializes&lt;/b&gt;&lt;/font&gt;" style="endArrow=open;endSize=12;html=1;rounded=0;edgeStyle=orthogonalEdgeStyle;exitX=0.501;exitY=1.039;exitDx=0;exitDy=0;exitPerimeter=0;strokeColor=#000000;shape=flexArrow;entryX=0.541;entryY=0;entryDx=0;entryDy=0;entryPerimeter=0;strokeWidth=2;" parent="1" edge="1">
          <mxGeometry width="160" relative="1" as="geometry">
            <mxPoint x="1808.4939999999997" y="-0.9882222222220207" as="sourcePoint" />
            <mxPoint x="1808.4099999999999" y="128.99999999999977" as="targetPoint" />
            <Array as="points" />
          </mxGeometry>
        </mxCell>
        <mxCell id="pQNl8kFYSYKoo_jJR8Nf-17" value="&lt;font style=&quot;font-size: 16px;&quot;&gt;&lt;b&gt;Interacts&lt;/b&gt;&lt;/font&gt;" style="endArrow=open;endSize=12;html=1;rounded=0;edgeStyle=orthogonalEdgeStyle;exitX=0.501;exitY=1.039;exitDx=0;exitDy=0;exitPerimeter=0;strokeColor=#000000;shape=flexArrow;entryX=0.541;entryY=0;entryDx=0;entryDy=0;entryPerimeter=0;strokeWidth=2;" parent="1" edge="1">
          <mxGeometry width="160" relative="1" as="geometry">
            <mxPoint x="1714" y="-1" as="sourcePoint" />
            <mxPoint x="1714" y="129" as="targetPoint" />
          </mxGeometry>
        </mxCell>
        <mxCell id="pQNl8kFYSYKoo_jJR8Nf-18" value="USER" style="shape=umlActor;verticalLabelPosition=bottom;verticalAlign=top;html=1;strokeWidth=2;" parent="1" vertex="1">
          <mxGeometry x="790" y="1970" width="30" height="60" as="geometry" />
        </mxCell>
        <mxCell id="pQNl8kFYSYKoo_jJR8Nf-22" value="" style="endArrow=open;endSize=12;dashed=1;html=1;rounded=0;edgeStyle=orthogonalEdgeStyle;exitX=0.5;exitY=0.5;exitDx=0;exitDy=0;exitPerimeter=0;jumpStyle=arc;jumpSize=25;" parent="1" source="pQNl8kFYSYKoo_jJR8Nf-18" edge="1">
          <mxGeometry x="0.3129" width="160" relative="1" as="geometry">
            <mxPoint x="680" y="2033.08" as="sourcePoint" />
            <mxPoint x="1073" y="1910" as="targetPoint" />
            <Array as="points">
              <mxPoint x="1073" y="2000" />
            </Array>
            <mxPoint as="offset" />
          </mxGeometry>
        </mxCell>
        <mxCell id="pQNl8kFYSYKoo_jJR8Nf-197" value="interacts" style="edgeLabel;html=1;align=center;verticalAlign=middle;resizable=0;points=[];" parent="pQNl8kFYSYKoo_jJR8Nf-22" vertex="1" connectable="0">
          <mxGeometry x="-0.6481" relative="1" as="geometry">
            <mxPoint x="-1" as="offset" />
          </mxGeometry>
        </mxCell>
        <mxCell id="pQNl8kFYSYKoo_jJR8Nf-23" value="interacts" style="endArrow=open;endSize=12;dashed=1;html=1;rounded=0;edgeStyle=orthogonalEdgeStyle;entryX=0.708;entryY=1.053;entryDx=0;entryDy=0;entryPerimeter=0;jumpStyle=arc;jumpSize=25;" parent="1" target="ADWufYTODqnqWgLy_RdV-52" edge="1">
          <mxGeometry x="0.77" width="160" relative="1" as="geometry">
            <mxPoint x="1070" y="2000" as="sourcePoint" />
            <mxPoint x="2080" y="2060" as="targetPoint" />
            <Array as="points">
              <mxPoint x="1990" y="2000" />
              <mxPoint x="1990" y="1937" />
            </Array>
            <mxPoint as="offset" />
          </mxGeometry>
        </mxCell>
        <mxCell id="pQNl8kFYSYKoo_jJR8Nf-24" value="interacts" style="endArrow=open;endSize=12;dashed=1;html=1;rounded=0;edgeStyle=orthogonalEdgeStyle;entryX=0.052;entryY=1.073;entryDx=0;entryDy=0;entryPerimeter=0;jumpStyle=arc;jumpSize=25;" parent="1" target="ADWufYTODqnqWgLy_RdV-137" edge="1">
          <mxGeometry x="0.6532" width="160" relative="1" as="geometry">
            <mxPoint x="1772" y="2000" as="sourcePoint" />
            <mxPoint x="1772.32" y="1650.0010000000007" as="targetPoint" />
            <Array as="points">
              <mxPoint x="1772" y="1994" />
              <mxPoint x="1774" y="1994" />
            </Array>
            <mxPoint as="offset" />
          </mxGeometry>
        </mxCell>
        <mxCell id="pQNl8kFYSYKoo_jJR8Nf-25" value="notifies track click" style="endArrow=open;endSize=12;dashed=1;html=1;rounded=0;edgeStyle=orthogonalEdgeStyle;exitX=1.002;exitY=0.071;exitDx=0;exitDy=0;exitPerimeter=0;entryX=0.994;entryY=0.932;entryDx=0;entryDy=0;entryPerimeter=0;" parent="1" source="ADWufYTODqnqWgLy_RdV-84" target="ADWufYTODqnqWgLy_RdV-112" edge="1">
          <mxGeometry x="0.7973" width="160" relative="1" as="geometry">
            <mxPoint x="2080" y="490" as="sourcePoint" />
            <mxPoint x="2240" y="490" as="targetPoint" />
            <mxPoint as="offset" />
          </mxGeometry>
        </mxCell>
        <mxCell id="pQNl8kFYSYKoo_jJR8Nf-28" value="includes" style="endArrow=open;endSize=12;dashed=1;html=1;rounded=0;exitX=0.006;exitY=0.071;exitDx=0;exitDy=0;exitPerimeter=0;entryX=1;entryY=0.25;entryDx=0;entryDy=0;edgeStyle=orthogonalEdgeStyle;" parent="1" source="qulfv3zckrtIXR-0wow6-51" edge="1">
          <mxGeometry x="-0.0353" y="-1" width="160" relative="1" as="geometry">
            <mxPoint x="1308" y="-180" as="sourcePoint" />
            <mxPoint x="1450" y="-311.4228571428566" as="targetPoint" />
            <mxPoint as="offset" />
          </mxGeometry>
        </mxCell>
        <mxCell id="pQNl8kFYSYKoo_jJR8Nf-155" value="Config" style="swimlane;fontStyle=1;align=center;verticalAlign=top;childLayout=stackLayout;horizontal=1;startSize=25.076923076923077;horizontalStack=0;resizeParent=1;resizeParentMax=0;resizeLast=0;collapsible=0;marginBottom=0;" parent="1" vertex="1">
          <mxGeometry x="1120" y="-333" width="330" height="333.0769230769231" as="geometry" />
        </mxCell>
        <mxCell id="pQNl8kFYSYKoo_jJR8Nf-156" value="- userOptions?: IOptions" style="text;strokeColor=none;fillColor=none;align=left;verticalAlign=top;spacingLeft=4;spacingRight=4;overflow=hidden;rotatable=0;points=[[0,0.5],[1,0.5]];portConstraint=eastwest;" parent="pQNl8kFYSYKoo_jJR8Nf-155" vertex="1">
          <mxGeometry y="25.076923076923077" width="330" height="25" as="geometry" />
        </mxCell>
        <mxCell id="pQNl8kFYSYKoo_jJR8Nf-157" value="- container?: Element" style="text;strokeColor=none;fillColor=none;align=left;verticalAlign=top;spacingLeft=4;spacingRight=4;overflow=hidden;rotatable=0;points=[[0,0.5],[1,0.5]];portConstraint=eastwest;" parent="pQNl8kFYSYKoo_jJR8Nf-155" vertex="1">
          <mxGeometry y="50.07692307692308" width="330" height="25" as="geometry" />
        </mxCell>
        <mxCell id="pQNl8kFYSYKoo_jJR8Nf-158" value="- static instance: Config" style="text;strokeColor=none;fillColor=none;align=left;verticalAlign=top;spacingLeft=4;spacingRight=4;overflow=hidden;rotatable=0;points=[[0,0.5],[1,0.5]];portConstraint=eastwest;" parent="pQNl8kFYSYKoo_jJR8Nf-155" vertex="1">
          <mxGeometry y="75.07692307692308" width="330" height="25" as="geometry" />
        </mxCell>
        <mxCell id="pQNl8kFYSYKoo_jJR8Nf-159" value="- static instanceId: number" style="text;strokeColor=none;fillColor=none;align=left;verticalAlign=top;spacingLeft=4;spacingRight=4;overflow=hidden;rotatable=0;points=[[0,0.5],[1,0.5]];portConstraint=eastwest;" parent="pQNl8kFYSYKoo_jJR8Nf-155" vertex="1">
          <mxGeometry y="100.07692307692308" width="330" height="25" as="geometry" />
        </mxCell>
        <mxCell id="pQNl8kFYSYKoo_jJR8Nf-160" value="- defaultOptions: IOptions" style="text;strokeColor=none;fillColor=none;align=left;verticalAlign=top;spacingLeft=4;spacingRight=4;overflow=hidden;rotatable=0;points=[[0,0.5],[1,0.5]];portConstraint=eastwest;" parent="pQNl8kFYSYKoo_jJR8Nf-155" vertex="1">
          <mxGeometry y="125.07692307692308" width="330" height="25" as="geometry" />
        </mxCell>
        <mxCell id="pQNl8kFYSYKoo_jJR8Nf-161" style="line;strokeWidth=1;fillColor=none;align=left;verticalAlign=middle;spacingTop=-1;spacingLeft=3;spacingRight=3;rotatable=0;labelPosition=right;points=[];portConstraint=eastwest;strokeColor=inherit;" parent="pQNl8kFYSYKoo_jJR8Nf-155" vertex="1">
          <mxGeometry y="150.0769230769231" width="330" height="8" as="geometry" />
        </mxCell>
        <mxCell id="pQNl8kFYSYKoo_jJR8Nf-162" value="+ set(container: HTMLElement, options?: IOptions): Config" style="text;strokeColor=none;fillColor=none;align=left;verticalAlign=top;spacingLeft=4;spacingRight=4;overflow=hidden;rotatable=0;points=[[0,0.5],[1,0.5]];portConstraint=eastwest;" parent="pQNl8kFYSYKoo_jJR8Nf-155" vertex="1">
          <mxGeometry y="158.0769230769231" width="330" height="25" as="geometry" />
        </mxCell>
        <mxCell id="pQNl8kFYSYKoo_jJR8Nf-163" value="+ getInstance(): Config" style="text;strokeColor=none;fillColor=none;align=left;verticalAlign=top;spacingLeft=4;spacingRight=4;overflow=hidden;rotatable=0;points=[[0,0.5],[1,0.5]];portConstraint=eastwest;" parent="pQNl8kFYSYKoo_jJR8Nf-155" vertex="1">
          <mxGeometry y="183.0769230769231" width="330" height="25" as="geometry" />
        </mxCell>
        <mxCell id="pQNl8kFYSYKoo_jJR8Nf-164" value="+ getInstanceById(instanceId: number): Config" style="text;strokeColor=none;fillColor=none;align=left;verticalAlign=top;spacingLeft=4;spacingRight=4;overflow=hidden;rotatable=0;points=[[0,0.5],[1,0.5]];portConstraint=eastwest;" parent="pQNl8kFYSYKoo_jJR8Nf-155" vertex="1">
          <mxGeometry y="208.0769230769231" width="330" height="25" as="geometry" />
        </mxCell>
        <mxCell id="pQNl8kFYSYKoo_jJR8Nf-165" value="+ decorateUserOptions(options: IOptions): IOptions" style="text;strokeColor=none;fillColor=none;align=left;verticalAlign=top;spacingLeft=4;spacingRight=4;overflow=hidden;rotatable=0;points=[[0,0.5],[1,0.5]];portConstraint=eastwest;" parent="pQNl8kFYSYKoo_jJR8Nf-155" vertex="1">
          <mxGeometry y="233.0769230769231" width="330" height="25" as="geometry" />
        </mxCell>
        <mxCell id="pQNl8kFYSYKoo_jJR8Nf-166" value="+ updateOptions(opt: IOptions): void" style="text;strokeColor=none;fillColor=none;align=left;verticalAlign=top;spacingLeft=4;spacingRight=4;overflow=hidden;rotatable=0;points=[[0,0.5],[1,0.5]];portConstraint=eastwest;" parent="pQNl8kFYSYKoo_jJR8Nf-155" vertex="1">
          <mxGeometry y="258.0769230769231" width="330" height="25" as="geometry" />
        </mxCell>
        <mxCell id="pQNl8kFYSYKoo_jJR8Nf-167" value="+ updateOptionsExact(config: Config, opt: IOptions): void" style="text;strokeColor=none;fillColor=none;align=left;verticalAlign=top;spacingLeft=4;spacingRight=4;overflow=hidden;rotatable=0;points=[[0,0.5],[1,0.5]];portConstraint=eastwest;" parent="pQNl8kFYSYKoo_jJR8Nf-155" vertex="1">
          <mxGeometry y="283.0769230769231" width="330" height="25" as="geometry" />
        </mxCell>
        <mxCell id="pQNl8kFYSYKoo_jJR8Nf-168" value="+ getOptions(): IOptions" style="text;strokeColor=none;fillColor=none;align=left;verticalAlign=top;spacingLeft=4;spacingRight=4;overflow=hidden;rotatable=0;points=[[0,0.5],[1,0.5]];portConstraint=eastwest;" parent="pQNl8kFYSYKoo_jJR8Nf-155" vertex="1">
          <mxGeometry y="308.0769230769231" width="330" height="25" as="geometry" />
        </mxCell>
        <mxCell id="pQNl8kFYSYKoo_jJR8Nf-198" value="notifies fill position / render" style="endArrow=open;endSize=12;dashed=1;html=1;rounded=0;edgeStyle=orthogonalEdgeStyle;entryX=1;entryY=0.5;entryDx=0;entryDy=0;exitX=0.991;exitY=-0.145;exitDx=0;exitDy=0;exitPerimeter=0;" parent="1" source="ADWufYTODqnqWgLy_RdV-110" target="ADWufYTODqnqWgLy_RdV-98" edge="1">
          <mxGeometry x="-0.2595" width="160" relative="1" as="geometry">
            <mxPoint x="1988" y="400" as="sourcePoint" />
            <mxPoint x="2700" y="420" as="targetPoint" />
            <Array as="points">
              <mxPoint x="2610" y="360" />
              <mxPoint x="2610" y="1037" />
            </Array>
            <mxPoint as="offset" />
          </mxGeometry>
        </mxCell>
        <mxCell id="pQNl8kFYSYKoo_jJR8Nf-199" value="Initializes" style="endArrow=open;endSize=12;dashed=1;html=1;rounded=0;edgeStyle=orthogonalEdgeStyle;entryX=0.123;entryY=0.944;entryDx=0;entryDy=0;entryPerimeter=0;" parent="1" source="ADWufYTODqnqWgLy_RdV-56" target="ADWufYTODqnqWgLy_RdV-112" edge="1">
          <mxGeometry width="160" relative="1" as="geometry">
            <mxPoint x="1710" y="940" as="sourcePoint" />
            <mxPoint x="1847" y="920" as="targetPoint" />
            <Array as="points">
              <mxPoint x="1700" y="940" />
              <mxPoint x="1700" y="441" />
            </Array>
          </mxGeometry>
        </mxCell>
        <mxCell id="pQNl8kFYSYKoo_jJR8Nf-26" value="&lt;font style=&quot;font-size: 12px;&quot;&gt;sets data&lt;/font&gt;" style="endArrow=open;endSize=12;dashed=1;html=1;rounded=0;edgeStyle=orthogonalEdgeStyle;" parent="1" source="ADWufYTODqnqWgLy_RdV-66" edge="1">
          <mxGeometry x="-0.3941" width="160" relative="1" as="geometry">
            <mxPoint x="1031" y="930" as="sourcePoint" />
            <mxPoint x="1030" y="771" as="targetPoint" />
            <Array as="points">
              <mxPoint x="1030" y="830" />
              <mxPoint x="1030" y="830" />
            </Array>
            <mxPoint as="offset" />
          </mxGeometry>
        </mxCell>
        <mxCell id="pQNl8kFYSYKoo_jJR8Nf-212" value="&lt;font style=&quot;font-size: 12px;&quot;&gt;notifies&lt;/font&gt;" style="endArrow=open;endSize=12;dashed=1;html=1;rounded=0;edgeStyle=orthogonalEdgeStyle;" parent="1" edge="1">
          <mxGeometry x="-0.3941" width="160" relative="1" as="geometry">
            <mxPoint x="1150" y="770.86" as="sourcePoint" />
            <mxPoint x="1150" y="926.86" as="targetPoint" />
            <Array as="points">
              <mxPoint x="1150" y="829.86" />
              <mxPoint x="1150" y="829.86" />
            </Array>
            <mxPoint as="offset" />
          </mxGeometry>
        </mxCell>
        <mxCell id="pQNl8kFYSYKoo_jJR8Nf-213" value="&lt;font style=&quot;font-size: 12px;&quot;&gt;gets data&lt;/font&gt;" style="endArrow=open;endSize=12;dashed=1;html=1;rounded=0;edgeStyle=orthogonalEdgeStyle;exitX=0.473;exitY=-0.002;exitDx=0;exitDy=0;exitPerimeter=0;entryX=0.486;entryY=0.969;entryDx=0;entryDy=0;entryPerimeter=0;" parent="1" source="ADWufYTODqnqWgLy_RdV-56" target="pQNl8kFYSYKoo_jJR8Nf-207" edge="1">
          <mxGeometry x="0.1369" width="160" relative="1" as="geometry">
            <mxPoint x="1551.4499999999998" y="906.5" as="sourcePoint" />
            <mxPoint x="1551.29" y="749.5" as="targetPoint" />
            <Array as="points">
              <mxPoint x="1518" y="920" />
              <mxPoint x="1518" y="917" />
              <mxPoint x="1518" y="917" />
            </Array>
            <mxPoint as="offset" />
          </mxGeometry>
        </mxCell>
        <mxCell id="pQNl8kFYSYKoo_jJR8Nf-214" value="&lt;font style=&quot;font-size: 12px;&quot;&gt;sets data&lt;/font&gt;" style="endArrow=open;endSize=12;dashed=1;html=1;rounded=0;edgeStyle=orthogonalEdgeStyle;exitX=0.25;exitY=0;exitDx=0;exitDy=0;entryX=0.268;entryY=1.05;entryDx=0;entryDy=0;entryPerimeter=0;" parent="1" source="ADWufYTODqnqWgLy_RdV-56" target="pQNl8kFYSYKoo_jJR8Nf-207" edge="1">
          <mxGeometry x="-0.3941" width="160" relative="1" as="geometry">
            <mxPoint x="1491.29" y="906.5" as="sourcePoint" />
            <mxPoint x="1440" y="730" as="targetPoint" />
            <Array as="points">
              <mxPoint x="1460" y="740" />
              <mxPoint x="1461" y="740" />
              <mxPoint x="1461" y="723" />
            </Array>
            <mxPoint as="offset" />
          </mxGeometry>
        </mxCell>
        <mxCell id="pQNl8kFYSYKoo_jJR8Nf-215" value="&lt;font style=&quot;font-size: 12px;&quot;&gt;notifies&lt;/font&gt;" style="endArrow=open;endSize=12;dashed=1;html=1;rounded=0;edgeStyle=orthogonalEdgeStyle;exitX=0.718;exitY=1.019;exitDx=0;exitDy=0;exitPerimeter=0;entryX=0.704;entryY=0.002;entryDx=0;entryDy=0;entryPerimeter=0;" parent="1" source="pQNl8kFYSYKoo_jJR8Nf-207" target="ADWufYTODqnqWgLy_RdV-56" edge="1">
          <mxGeometry x="-0.3941" width="160" relative="1" as="geometry">
            <mxPoint x="1611.29" y="750.36" as="sourcePoint" />
            <mxPoint x="1611" y="920" as="targetPoint" />
            <Array as="points">
              <mxPoint x="1580" y="809" />
              <mxPoint x="1580" y="809" />
              <mxPoint x="1580" y="921" />
            </Array>
            <mxPoint as="offset" />
          </mxGeometry>
        </mxCell>
        <mxCell id="pQNl8kFYSYKoo_jJR8Nf-216" value="&lt;font style=&quot;font-size: 12px;&quot;&gt;gets data&lt;/font&gt;" style="endArrow=open;endSize=12;dashed=1;html=1;rounded=0;edgeStyle=orthogonalEdgeStyle;exitX=0.355;exitY=-0.012;exitDx=0;exitDy=0;exitPerimeter=0;entryX=0.459;entryY=1.017;entryDx=0;entryDy=0;entryPerimeter=0;" parent="1" source="ADWufYTODqnqWgLy_RdV-84" target="pQNl8kFYSYKoo_jJR8Nf-209" edge="1">
          <mxGeometry x="0.1369" width="160" relative="1" as="geometry">
            <mxPoint x="2030" y="890" as="sourcePoint" />
            <mxPoint x="2030" y="780" as="targetPoint" />
            <Array as="points" />
            <mxPoint as="offset" />
          </mxGeometry>
        </mxCell>
        <mxCell id="pQNl8kFYSYKoo_jJR8Nf-217" value="&lt;font style=&quot;font-size: 12px;&quot;&gt;sets data&lt;/font&gt;" style="endArrow=open;endSize=12;dashed=1;html=1;rounded=0;edgeStyle=orthogonalEdgeStyle;exitX=0.162;exitY=0;exitDx=0;exitDy=0;exitPerimeter=0;entryX=0.207;entryY=1.017;entryDx=0;entryDy=0;entryPerimeter=0;" parent="1" source="ADWufYTODqnqWgLy_RdV-84" target="pQNl8kFYSYKoo_jJR8Nf-209" edge="1">
          <mxGeometry x="-0.3941" width="160" relative="1" as="geometry">
            <mxPoint x="1970" y="900" as="sourcePoint" />
            <mxPoint x="1970" y="780" as="targetPoint" />
            <Array as="points" />
            <mxPoint as="offset" />
          </mxGeometry>
        </mxCell>
        <mxCell id="pQNl8kFYSYKoo_jJR8Nf-218" value="&lt;font style=&quot;font-size: 12px;&quot;&gt;notifies&lt;/font&gt;" style="endArrow=open;endSize=12;dashed=1;html=1;rounded=0;edgeStyle=orthogonalEdgeStyle;entryX=0.549;entryY=0.004;entryDx=0;entryDy=0;entryPerimeter=0;exitX=0.706;exitY=1.01;exitDx=0;exitDy=0;exitPerimeter=0;" parent="1" source="pQNl8kFYSYKoo_jJR8Nf-209" target="ADWufYTODqnqWgLy_RdV-84" edge="1">
          <mxGeometry x="-0.3941" width="160" relative="1" as="geometry">
            <mxPoint x="2090" y="780" as="sourcePoint" />
            <mxPoint x="2091" y="910" as="targetPoint" />
            <Array as="points" />
            <mxPoint as="offset" />
          </mxGeometry>
        </mxCell>
        <mxCell id="pQNl8kFYSYKoo_jJR8Nf-219" value="&lt;font style=&quot;font-size: 12px;&quot;&gt;gets data&lt;/font&gt;" style="endArrow=open;endSize=12;dashed=1;html=1;rounded=0;edgeStyle=orthogonalEdgeStyle;entryX=0.469;entryY=0.99;entryDx=0;entryDy=0;entryPerimeter=0;exitX=0.441;exitY=0;exitDx=0;exitDy=0;exitPerimeter=0;" parent="1" source="ADWufYTODqnqWgLy_RdV-94" target="ADWufYTODqnqWgLy_RdV-47" edge="1">
          <mxGeometry x="0.1369" width="160" relative="1" as="geometry">
            <mxPoint x="2470" y="910" as="sourcePoint" />
            <mxPoint x="2470" y="780" as="targetPoint" />
            <Array as="points" />
            <mxPoint as="offset" />
          </mxGeometry>
        </mxCell>
        <mxCell id="pQNl8kFYSYKoo_jJR8Nf-220" value="&lt;font style=&quot;font-size: 12px;&quot;&gt;sets data&lt;/font&gt;" style="endArrow=open;endSize=12;dashed=1;html=1;rounded=0;edgeStyle=orthogonalEdgeStyle;entryX=0.282;entryY=0.968;entryDx=0;entryDy=0;entryPerimeter=0;exitX=0.266;exitY=-0.001;exitDx=0;exitDy=0;exitPerimeter=0;" parent="1" source="ADWufYTODqnqWgLy_RdV-94" target="ADWufYTODqnqWgLy_RdV-47" edge="1">
          <mxGeometry x="-0.3941" width="160" relative="1" as="geometry">
            <mxPoint x="2410" y="910" as="sourcePoint" />
            <mxPoint x="2410.29" y="771.86" as="targetPoint" />
            <Array as="points" />
            <mxPoint as="offset" />
          </mxGeometry>
        </mxCell>
        <mxCell id="pQNl8kFYSYKoo_jJR8Nf-221" value="&lt;font style=&quot;font-size: 12px;&quot;&gt;notifies&lt;/font&gt;" style="endArrow=open;endSize=12;dashed=1;html=1;rounded=0;edgeStyle=orthogonalEdgeStyle;entryX=0.615;entryY=0.002;entryDx=0;entryDy=0;entryPerimeter=0;exitX=0.659;exitY=1.035;exitDx=0;exitDy=0;exitPerimeter=0;" parent="1" source="ADWufYTODqnqWgLy_RdV-47" target="ADWufYTODqnqWgLy_RdV-94" edge="1">
          <mxGeometry x="-0.4923" y="-1" width="160" relative="1" as="geometry">
            <mxPoint x="2530" y="800" as="sourcePoint" />
            <mxPoint x="2530" y="910" as="targetPoint" />
            <Array as="points">
              <mxPoint x="2421" y="820" />
              <mxPoint x="2419" y="820" />
            </Array>
            <mxPoint as="offset" />
          </mxGeometry>
        </mxCell>
        <mxCell id="pQNl8kFYSYKoo_jJR8Nf-222" value="gets start point" style="endArrow=open;endSize=12;dashed=1;html=1;rounded=0;exitX=-0.005;exitY=0.201;exitDx=0;exitDy=0;edgeStyle=orthogonalEdgeStyle;exitPerimeter=0;" parent="1" edge="1">
          <mxGeometry x="0.5798" width="160" relative="1" as="geometry">
            <mxPoint x="1251" y="960" as="sourcePoint" />
            <mxPoint x="1658" y="360" as="targetPoint" />
            <Array as="points">
              <mxPoint x="1270" y="960" />
              <mxPoint x="1270" y="360" />
              <mxPoint x="1658" y="360" />
            </Array>
            <mxPoint as="offset" />
          </mxGeometry>
        </mxCell>
        <mxCell id="pQNl8kFYSYKoo_jJR8Nf-223" value="" style="endArrow=block;dashed=1;endFill=0;endSize=12;html=1;rounded=0;edgeStyle=orthogonalEdgeStyle;entryX=1;entryY=0.5;entryDx=0;entryDy=0;" parent="1" source="pQNl8kFYSYKoo_jJR8Nf-156" target="pQNl8kFYSYKoo_jJR8Nf-238" edge="1">
          <mxGeometry width="160" relative="1" as="geometry">
            <mxPoint x="1120" y="-270" as="sourcePoint" />
            <mxPoint x="1010" y="-295" as="targetPoint" />
          </mxGeometry>
        </mxCell>
        <mxCell id="pQNl8kFYSYKoo_jJR8Nf-224" value="implements" style="edgeLabel;html=1;align=center;verticalAlign=middle;resizable=0;points=[];" parent="pQNl8kFYSYKoo_jJR8Nf-223" vertex="1" connectable="0">
          <mxGeometry x="-0.1437" relative="1" as="geometry">
            <mxPoint x="-1" as="offset" />
          </mxGeometry>
        </mxCell>
        <mxCell id="pQNl8kFYSYKoo_jJR8Nf-225" value="&lt;&lt;Interface&gt;&gt;&#xa;IOptions" style="swimlane;fontStyle=1;align=center;verticalAlign=top;childLayout=stackLayout;horizontal=1;startSize=35.94642857142857;horizontalStack=0;resizeParent=1;resizeParentMax=0;resizeLast=0;collapsible=0;marginBottom=0;" parent="1" vertex="1">
          <mxGeometry x="860" y="-630.97" width="160" height="671.9464285714286" as="geometry" />
        </mxCell>
        <mxCell id="pQNl8kFYSYKoo_jJR8Nf-226" value="+ orientation: string" style="text;strokeColor=none;fillColor=none;align=left;verticalAlign=top;spacingLeft=4;spacingRight=4;overflow=hidden;rotatable=0;points=[[0,0.5],[1,0.5]];portConstraint=eastwest;" parent="pQNl8kFYSYKoo_jJR8Nf-225" vertex="1">
          <mxGeometry y="35.94642857142857" width="160" height="24" as="geometry" />
        </mxCell>
        <mxCell id="pQNl8kFYSYKoo_jJR8Nf-227" value="+ min: number" style="text;strokeColor=none;fillColor=none;align=left;verticalAlign=top;spacingLeft=4;spacingRight=4;overflow=hidden;rotatable=0;points=[[0,0.5],[1,0.5]];portConstraint=eastwest;" parent="pQNl8kFYSYKoo_jJR8Nf-225" vertex="1">
          <mxGeometry y="59.94642857142857" width="160" height="24" as="geometry" />
        </mxCell>
        <mxCell id="pQNl8kFYSYKoo_jJR8Nf-228" value="+ max: number" style="text;strokeColor=none;fillColor=none;align=left;verticalAlign=top;spacingLeft=4;spacingRight=4;overflow=hidden;rotatable=0;points=[[0,0.5],[1,0.5]];portConstraint=eastwest;" parent="pQNl8kFYSYKoo_jJR8Nf-225" vertex="1">
          <mxGeometry y="83.94642857142857" width="160" height="24" as="geometry" />
        </mxCell>
        <mxCell id="pQNl8kFYSYKoo_jJR8Nf-229" value="+ value: number" style="text;strokeColor=none;fillColor=none;align=left;verticalAlign=top;spacingLeft=4;spacingRight=4;overflow=hidden;rotatable=0;points=[[0,0.5],[1,0.5]];portConstraint=eastwest;" parent="pQNl8kFYSYKoo_jJR8Nf-225" vertex="1">
          <mxGeometry y="107.94642857142857" width="160" height="24" as="geometry" />
        </mxCell>
        <mxCell id="pQNl8kFYSYKoo_jJR8Nf-230" value="+ step: number" style="text;strokeColor=none;fillColor=none;align=left;verticalAlign=top;spacingLeft=4;spacingRight=4;overflow=hidden;rotatable=0;points=[[0,0.5],[1,0.5]];portConstraint=eastwest;" parent="pQNl8kFYSYKoo_jJR8Nf-225" vertex="1">
          <mxGeometry y="131.94642857142856" width="160" height="24" as="geometry" />
        </mxCell>
        <mxCell id="pQNl8kFYSYKoo_jJR8Nf-231" value="+ trackHeight: number" style="text;strokeColor=none;fillColor=none;align=left;verticalAlign=top;spacingLeft=4;spacingRight=4;overflow=hidden;rotatable=0;points=[[0,0.5],[1,0.5]];portConstraint=eastwest;" parent="pQNl8kFYSYKoo_jJR8Nf-225" vertex="1">
          <mxGeometry y="155.94642857142856" width="160" height="24" as="geometry" />
        </mxCell>
        <mxCell id="pQNl8kFYSYKoo_jJR8Nf-232" value="+ fill: boolean" style="text;strokeColor=none;fillColor=none;align=left;verticalAlign=top;spacingLeft=4;spacingRight=4;overflow=hidden;rotatable=0;points=[[0,0.5],[1,0.5]];portConstraint=eastwest;" parent="pQNl8kFYSYKoo_jJR8Nf-225" vertex="1">
          <mxGeometry y="179.94642857142856" width="160" height="24" as="geometry" />
        </mxCell>
        <mxCell id="pQNl8kFYSYKoo_jJR8Nf-233" value="+ tooltip: boolean" style="text;strokeColor=none;fillColor=none;align=left;verticalAlign=top;spacingLeft=4;spacingRight=4;overflow=hidden;rotatable=0;points=[[0,0.5],[1,0.5]];portConstraint=eastwest;" parent="pQNl8kFYSYKoo_jJR8Nf-225" vertex="1">
          <mxGeometry y="203.94642857142856" width="160" height="24" as="geometry" />
        </mxCell>
        <mxCell id="pQNl8kFYSYKoo_jJR8Nf-234" value="+ tooltipForm: string" style="text;strokeColor=none;fillColor=none;align=left;verticalAlign=top;spacingLeft=4;spacingRight=4;overflow=hidden;rotatable=0;points=[[0,0.5],[1,0.5]];portConstraint=eastwest;" parent="pQNl8kFYSYKoo_jJR8Nf-225" vertex="1">
          <mxGeometry y="227.94642857142856" width="160" height="24" as="geometry" />
        </mxCell>
        <mxCell id="pQNl8kFYSYKoo_jJR8Nf-235" value="+ thumbSize: number" style="text;strokeColor=none;fillColor=none;align=left;verticalAlign=top;spacingLeft=4;spacingRight=4;overflow=hidden;rotatable=0;points=[[0,0.5],[1,0.5]];portConstraint=eastwest;" parent="pQNl8kFYSYKoo_jJR8Nf-225" vertex="1">
          <mxGeometry y="251.94642857142856" width="160" height="24" as="geometry" />
        </mxCell>
        <mxCell id="pQNl8kFYSYKoo_jJR8Nf-236" value="+ doublePoint: boolean" style="text;strokeColor=none;fillColor=none;align=left;verticalAlign=top;spacingLeft=4;spacingRight=4;overflow=hidden;rotatable=0;points=[[0,0.5],[1,0.5]];portConstraint=eastwest;" parent="pQNl8kFYSYKoo_jJR8Nf-225" vertex="1">
          <mxGeometry y="275.94642857142856" width="160" height="24" as="geometry" />
        </mxCell>
        <mxCell id="pQNl8kFYSYKoo_jJR8Nf-237" value="+ label: boolean" style="text;strokeColor=none;fillColor=none;align=left;verticalAlign=top;spacingLeft=4;spacingRight=4;overflow=hidden;rotatable=0;points=[[0,0.5],[1,0.5]];portConstraint=eastwest;" parent="pQNl8kFYSYKoo_jJR8Nf-225" vertex="1">
          <mxGeometry y="299.94642857142856" width="160" height="24" as="geometry" />
        </mxCell>
        <mxCell id="pQNl8kFYSYKoo_jJR8Nf-238" value="+ labelStyles: object" style="text;strokeColor=none;fillColor=none;align=left;verticalAlign=top;spacingLeft=4;spacingRight=4;overflow=hidden;rotatable=0;points=[[0,0.5],[1,0.5]];portConstraint=eastwest;" parent="pQNl8kFYSYKoo_jJR8Nf-225" vertex="1">
          <mxGeometry y="323.94642857142856" width="160" height="24" as="geometry" />
        </mxCell>
        <mxCell id="pQNl8kFYSYKoo_jJR8Nf-239" value="+ labelString: string" style="text;strokeColor=none;fillColor=none;align=left;verticalAlign=top;spacingLeft=4;spacingRight=4;overflow=hidden;rotatable=0;points=[[0,0.5],[1,0.5]];portConstraint=eastwest;" parent="pQNl8kFYSYKoo_jJR8Nf-225" vertex="1">
          <mxGeometry y="347.94642857142856" width="160" height="24" as="geometry" />
        </mxCell>
        <mxCell id="pQNl8kFYSYKoo_jJR8Nf-240" value="+ valueInLabel: boolean" style="text;strokeColor=none;fillColor=none;align=left;verticalAlign=top;spacingLeft=4;spacingRight=4;overflow=hidden;rotatable=0;points=[[0,0.5],[1,0.5]];portConstraint=eastwest;" parent="pQNl8kFYSYKoo_jJR8Nf-225" vertex="1">
          <mxGeometry y="371.94642857142856" width="160" height="24" as="geometry" />
        </mxCell>
        <mxCell id="pQNl8kFYSYKoo_jJR8Nf-241" value="+ ticks: boolean" style="text;strokeColor=none;fillColor=none;align=left;verticalAlign=top;spacingLeft=4;spacingRight=4;overflow=hidden;rotatable=0;points=[[0,0.5],[1,0.5]];portConstraint=eastwest;" parent="pQNl8kFYSYKoo_jJR8Nf-225" vertex="1">
          <mxGeometry y="395.94642857142856" width="160" height="24" as="geometry" />
        </mxCell>
        <mxCell id="pQNl8kFYSYKoo_jJR8Nf-242" value="+ maxTicks: number" style="text;strokeColor=none;fillColor=none;align=left;verticalAlign=top;spacingLeft=4;spacingRight=4;overflow=hidden;rotatable=0;points=[[0,0.5],[1,0.5]];portConstraint=eastwest;" parent="pQNl8kFYSYKoo_jJR8Nf-225" vertex="1">
          <mxGeometry y="419.94642857142856" width="160" height="24" as="geometry" />
        </mxCell>
        <mxCell id="pQNl8kFYSYKoo_jJR8Nf-243" value="+ tickBar: boolean" style="text;strokeColor=none;fillColor=none;align=left;verticalAlign=top;spacingLeft=4;spacingRight=4;overflow=hidden;rotatable=0;points=[[0,0.5],[1,0.5]];portConstraint=eastwest;" parent="pQNl8kFYSYKoo_jJR8Nf-225" vertex="1">
          <mxGeometry y="443.94642857142856" width="160" height="24" as="geometry" />
        </mxCell>
        <mxCell id="pQNl8kFYSYKoo_jJR8Nf-244" value="+ tickFontSize: number" style="text;strokeColor=none;fillColor=none;align=left;verticalAlign=top;spacingLeft=4;spacingRight=4;overflow=hidden;rotatable=0;points=[[0,0.5],[1,0.5]];portConstraint=eastwest;" parent="pQNl8kFYSYKoo_jJR8Nf-225" vertex="1">
          <mxGeometry y="467.94642857142856" width="160" height="24" as="geometry" />
        </mxCell>
        <mxCell id="pQNl8kFYSYKoo_jJR8Nf-245" value="+ thumbColor: string" style="text;strokeColor=none;fillColor=none;align=left;verticalAlign=top;spacingLeft=4;spacingRight=4;overflow=hidden;rotatable=0;points=[[0,0.5],[1,0.5]];portConstraint=eastwest;" parent="pQNl8kFYSYKoo_jJR8Nf-225" vertex="1">
          <mxGeometry y="491.94642857142856" width="160" height="24" as="geometry" />
        </mxCell>
        <mxCell id="pQNl8kFYSYKoo_jJR8Nf-246" value="+ thumbShadow: boolean" style="text;strokeColor=none;fillColor=none;align=left;verticalAlign=top;spacingLeft=4;spacingRight=4;overflow=hidden;rotatable=0;points=[[0,0.5],[1,0.5]];portConstraint=eastwest;" parent="pQNl8kFYSYKoo_jJR8Nf-225" vertex="1">
          <mxGeometry y="515.9464285714286" width="160" height="24" as="geometry" />
        </mxCell>
        <mxCell id="pQNl8kFYSYKoo_jJR8Nf-247" value="+ thumbAnimation: boolean" style="text;strokeColor=none;fillColor=none;align=left;verticalAlign=top;spacingLeft=4;spacingRight=4;overflow=hidden;rotatable=0;points=[[0,0.5],[1,0.5]];portConstraint=eastwest;" parent="pQNl8kFYSYKoo_jJR8Nf-225" vertex="1">
          <mxGeometry y="539.9464285714286" width="160" height="24" as="geometry" />
        </mxCell>
        <mxCell id="pQNl8kFYSYKoo_jJR8Nf-248" value="+ trackColor: string" style="text;strokeColor=none;fillColor=none;align=left;verticalAlign=top;spacingLeft=4;spacingRight=4;overflow=hidden;rotatable=0;points=[[0,0.5],[1,0.5]];portConstraint=eastwest;" parent="pQNl8kFYSYKoo_jJR8Nf-225" vertex="1">
          <mxGeometry y="563.9464285714286" width="160" height="24" as="geometry" />
        </mxCell>
        <mxCell id="pQNl8kFYSYKoo_jJR8Nf-249" value="+ fillColor: string" style="text;strokeColor=none;fillColor=none;align=left;verticalAlign=top;spacingLeft=4;spacingRight=4;overflow=hidden;rotatable=0;points=[[0,0.5],[1,0.5]];portConstraint=eastwest;" parent="pQNl8kFYSYKoo_jJR8Nf-225" vertex="1">
          <mxGeometry y="587.9464285714286" width="160" height="24" as="geometry" />
        </mxCell>
        <mxCell id="pQNl8kFYSYKoo_jJR8Nf-250" value="+ tooltipColor: string" style="text;strokeColor=none;fillColor=none;align=left;verticalAlign=top;spacingLeft=4;spacingRight=4;overflow=hidden;rotatable=0;points=[[0,0.5],[1,0.5]];portConstraint=eastwest;" parent="pQNl8kFYSYKoo_jJR8Nf-225" vertex="1">
          <mxGeometry y="611.9464285714286" width="160" height="24" as="geometry" />
        </mxCell>
        <mxCell id="pQNl8kFYSYKoo_jJR8Nf-251" value="+ rulerColor: string" style="text;strokeColor=none;fillColor=none;align=left;verticalAlign=top;spacingLeft=4;spacingRight=4;overflow=hidden;rotatable=0;points=[[0,0.5],[1,0.5]];portConstraint=eastwest;" parent="pQNl8kFYSYKoo_jJR8Nf-225" vertex="1">
          <mxGeometry y="635.9464285714286" width="160" height="24" as="geometry" />
        </mxCell>
        <mxCell id="pQNl8kFYSYKoo_jJR8Nf-252" style="line;strokeWidth=1;fillColor=none;align=left;verticalAlign=middle;spacingTop=-1;spacingLeft=3;spacingRight=3;rotatable=0;labelPosition=right;points=[];portConstraint=eastwest;strokeColor=inherit;" parent="pQNl8kFYSYKoo_jJR8Nf-225" vertex="1">
          <mxGeometry y="659.9464285714286" width="160" height="12" as="geometry" />
        </mxCell>
        <mxCell id="pQNl8kFYSYKoo_jJR8Nf-253" value="handles user interaction" style="endArrow=open;endSize=12;dashed=1;html=1;rounded=0;edgeStyle=orthogonalEdgeStyle;exitX=0.731;exitY=0.999;exitDx=0;exitDy=0;exitPerimeter=0;entryX=0.817;entryY=-0.002;entryDx=0;entryDy=0;entryPerimeter=0;" parent="1" source="pQNl8kFYSYKoo_jJR8Nf-256" target="ADWufYTODqnqWgLy_RdV-113" edge="1">
          <mxGeometry x="0.2226" y="-3" width="160" relative="1" as="geometry">
            <mxPoint x="1180" y="1390" as="sourcePoint" />
            <mxPoint x="1340" y="1390" as="targetPoint" />
            <Array as="points">
              <mxPoint x="1153" y="1450" />
            </Array>
            <mxPoint as="offset" />
          </mxGeometry>
        </mxCell>
        <mxCell id="pQNl8kFYSYKoo_jJR8Nf-254" value="handles user interaction" style="endArrow=open;endSize=12;dashed=1;html=1;rounded=0;edgeStyle=orthogonalEdgeStyle;exitX=0.672;exitY=0.951;exitDx=0;exitDy=0;exitPerimeter=0;" parent="1" source="ADWufYTODqnqWgLy_RdV-93" edge="1">
          <mxGeometry x="0.3278" width="160" relative="1" as="geometry">
            <mxPoint x="1990" y="1200" as="sourcePoint" />
            <mxPoint x="1990" y="1430" as="targetPoint" />
            <Array as="points">
              <mxPoint x="1988" y="1190" />
              <mxPoint x="1990" y="1190" />
            </Array>
            <mxPoint as="offset" />
          </mxGeometry>
        </mxCell>
        <mxCell id="pQNl8kFYSYKoo_jJR8Nf-257" value="&lt;font style=&quot;font-size: 12px;&quot;&gt;notifies&lt;/font&gt;" style="endArrow=open;endSize=12;dashed=1;html=1;rounded=0;edgeStyle=orthogonalEdgeStyle;exitX=1;exitY=0.5;exitDx=0;exitDy=0;entryX=0.003;entryY=0.846;entryDx=0;entryDy=0;entryPerimeter=0;" parent="1" source="ADWufYTODqnqWgLy_RdV-72" target="ADWufYTODqnqWgLy_RdV-61" edge="1">
          <mxGeometry x="-0.3941" width="160" relative="1" as="geometry">
            <mxPoint x="1284.29" y="1080" as="sourcePoint" />
            <mxPoint x="1284.29" y="1236" as="targetPoint" />
            <Array as="points">
              <mxPoint x="1270" y="1072" />
              <mxPoint x="1270" y="1072" />
            </Array>
            <mxPoint as="offset" />
          </mxGeometry>
        </mxCell>
        <mxCell id="pQNl8kFYSYKoo_jJR8Nf-258" value="updates on init" style="endArrow=open;endSize=12;dashed=1;html=1;rounded=0;edgeStyle=orthogonalEdgeStyle;jumpStyle=arc;jumpSize=25;exitX=0.001;exitY=0.667;exitDx=0;exitDy=0;exitPerimeter=0;entryX=1.001;entryY=0.61;entryDx=0;entryDy=0;entryPerimeter=0;" parent="1" source="pQNl8kFYSYKoo_jJR8Nf-270" target="ADWufYTODqnqWgLy_RdV-72" edge="1">
          <mxGeometry x="-0.1596" y="-1" width="160" relative="1" as="geometry">
            <mxPoint x="1420.4660000000001" y="1101.576" as="sourcePoint" />
            <mxPoint x="1260" y="1103" as="targetPoint" />
            <Array as="points">
              <mxPoint x="1260" y="1103" />
            </Array>
            <mxPoint as="offset" />
          </mxGeometry>
        </mxCell>
        <mxCell id="pQNl8kFYSYKoo_jJR8Nf-262" value="gets HTMLElement" style="endArrow=open;endSize=12;dashed=1;html=1;rounded=0;edgeStyle=orthogonalEdgeStyle;exitX=0.196;exitY=0.995;exitDx=0;exitDy=0;exitPerimeter=0;entryX=0.219;entryY=0.001;entryDx=0;entryDy=0;entryPerimeter=0;" parent="1" source="pQNl8kFYSYKoo_jJR8Nf-256" target="ADWufYTODqnqWgLy_RdV-113" edge="1">
          <mxGeometry x="-0.1638" y="1" width="160" relative="1" as="geometry">
            <mxPoint x="960" y="1430" as="sourcePoint" />
            <mxPoint x="960" y="1490" as="targetPoint" />
            <Array as="points" />
            <mxPoint as="offset" />
          </mxGeometry>
        </mxCell>
        <mxCell id="pQNl8kFYSYKoo_jJR8Nf-263" value="gets HTMLElement" style="endArrow=open;endSize=12;dashed=1;html=1;rounded=0;edgeStyle=orthogonalEdgeStyle;entryX=0.167;entryY=-0.005;entryDx=0;entryDy=0;entryPerimeter=0;exitX=0.211;exitY=1.003;exitDx=0;exitDy=0;exitPerimeter=0;" parent="1" source="ADWufYTODqnqWgLy_RdV-65" target="ADWufYTODqnqWgLy_RdV-145" edge="1">
          <mxGeometry x="-0.1638" y="1" width="160" relative="1" as="geometry">
            <mxPoint x="1479" y="1170" as="sourcePoint" />
            <mxPoint x="1480" y="1249" as="targetPoint" />
            <Array as="points" />
            <mxPoint as="offset" />
          </mxGeometry>
        </mxCell>
        <mxCell id="pQNl8kFYSYKoo_jJR8Nf-264" value="gets HTMLElement" style="endArrow=open;endSize=12;dashed=1;html=1;rounded=0;edgeStyle=orthogonalEdgeStyle;exitX=0.128;exitY=1.023;exitDx=0;exitDy=0;exitPerimeter=0;entryX=0.181;entryY=0;entryDx=0;entryDy=0;entryPerimeter=0;" parent="1" source="ADWufYTODqnqWgLy_RdV-93" target="ADWufYTODqnqWgLy_RdV-129" edge="1">
          <mxGeometry x="-0.1638" y="1" width="160" relative="1" as="geometry">
            <mxPoint x="1960" y="1180" as="sourcePoint" />
            <mxPoint x="1960" y="1267" as="targetPoint" />
            <Array as="points" />
            <mxPoint as="offset" />
          </mxGeometry>
        </mxCell>
        <mxCell id="pQNl8kFYSYKoo_jJR8Nf-261" value="updates on init" style="endArrow=open;endSize=12;dashed=1;html=1;rounded=0;edgeStyle=orthogonalEdgeStyle;jumpStyle=arc;jumpSize=25;entryX=0.144;entryY=1.139;entryDx=0;entryDy=0;entryPerimeter=0;exitX=0.888;exitY=1.077;exitDx=0;exitDy=0;exitPerimeter=0;" parent="1" source="ADWufYTODqnqWgLy_RdV-65" target="ADWufYTODqnqWgLy_RdV-102" edge="1">
          <mxGeometry x="-0.7916" width="160" relative="1" as="geometry">
            <mxPoint x="1700" y="1040" as="sourcePoint" />
            <mxPoint x="1863" y="1040.71" as="targetPoint" />
            <Array as="points">
              <mxPoint x="1660" y="1240" />
              <mxPoint x="2369" y="1240" />
            </Array>
            <mxPoint as="offset" />
          </mxGeometry>
        </mxCell>
        <mxCell id="pQNl8kFYSYKoo_jJR8Nf-265" value="gets HTMLElement" style="endArrow=open;endSize=12;dashed=1;html=1;rounded=0;edgeStyle=orthogonalEdgeStyle;exitX=0.642;exitY=0.973;exitDx=0;exitDy=0;exitPerimeter=0;entryX=0.641;entryY=-0.009;entryDx=0;entryDy=0;entryPerimeter=0;" parent="1" source="ADWufYTODqnqWgLy_RdV-102" edge="1" target="ADWufYTODqnqWgLy_RdV-138">
          <mxGeometry x="-0.1638" y="1" width="160" relative="1" as="geometry">
            <mxPoint x="2541" y="1145.59" as="sourcePoint" />
            <mxPoint x="2538" y="1430" as="targetPoint" />
            <Array as="points" />
            <mxPoint as="offset" />
          </mxGeometry>
        </mxCell>
        <mxCell id="pQNl8kFYSYKoo_jJR8Nf-266" value="initializes" style="endArrow=open;endSize=12;dashed=1;html=1;rounded=0;edgeStyle=orthogonalEdgeStyle;entryX=0.686;entryY=-0.012;entryDx=0;entryDy=0;entryPerimeter=0;exitX=0.637;exitY=1.008;exitDx=0;exitDy=0;exitPerimeter=0;" parent="1" source="ADWufYTODqnqWgLy_RdV-137" target="ADWufYTODqnqWgLy_RdV-48" edge="1">
          <mxGeometry width="160" relative="1" as="geometry">
            <mxPoint x="2120" y="1680" as="sourcePoint" />
            <mxPoint x="2210" y="1720" as="targetPoint" />
            <Array as="points">
              <mxPoint x="1984" y="1700" />
              <mxPoint x="1984" y="1700" />
            </Array>
          </mxGeometry>
        </mxCell>
      </root>
    </mxGraphModel>
  </diagram>
</mxfile>
